Benzinova-Thin-Extended.ufo
<glyph name="exclam" format="1">
  <advance width="160"/>
  <unicode hex="0021"/>
  <outline>
    <contour>
      <point x="80" y="1200" type="curve" smooth="yes"/>
      <point x="72" y="1200"/>
      <point x="64" y="1192"/>
      <point x="64" y="1184" type="curve" smooth="yes"/>
      <point x="64" y="210" type="line" smooth="yes"/>
      <point x="64" y="202"/>
      <point x="72" y="194"/>
      <point x="80" y="194" type="curve" smooth="yes"/>
      <point x="88" y="194"/>
      <point x="96" y="202"/>
      <point x="96" y="210" type="curve" smooth="yes"/>
      <point x="96" y="1184" type="line" smooth="yes"/>
      <point x="96" y="1192"/>
      <point x="88" y="1200"/>
    </contour>
    <contour>
      <point x="80" y="-4" type="curve" smooth="yes"/>
      <point x="93" y="-4"/>
      <point x="104" y="7"/>
      <point x="104" y="20" type="curve" smooth="yes"/>
      <point x="104" y="33"/>
      <point x="93" y="44"/>
      <point x="80" y="44" type="curve" smooth="yes"/>
      <point x="67" y="44"/>
      <point x="56" y="33"/>
      <point x="56" y="20" type="curve" smooth="yes"/>
      <point x="56" y="7"/>
      <point x="67" y="-4"/>
    </contour>
  </outline>
</glyph>
<glyph name="percent" format="1">
  <advance width="616.0"/>
  <unicode hex="0025"/>
  <outline>
    <contour>
      <point x="96" y="0" type="curve" smooth="yes"/>
      <point x="102" y="0"/>
      <point x="106" y="2"/>
      <point x="110" y="8" type="curve" smooth="yes"/>
      <point x="534" y="644" type="line" smooth="yes"/>
      <point x="536" y="646"/>
      <point x="536" y="650"/>
      <point x="536" y="652" type="curve" smooth="yes"/>
      <point x="536" y="660"/>
      <point x="528" y="670"/>
      <point x="520" y="670" type="curve" smooth="yes"/>
      <point x="514" y="670"/>
      <point x="510" y="666"/>
      <point x="506" y="662" type="curve" smooth="yes"/>
      <point x="82" y="24" type="line" smooth="yes"/>
      <point x="80" y="22"/>
      <point x="80" y="20"/>
      <point x="80" y="16" type="curve" smooth="yes"/>
      <point x="80" y="10"/>
      <point x="84" y="0"/>
    </contour>
    <contour>
      <point x="202" y="424" type="curve" smooth="yes"/>
      <point x="270" y="424"/>
      <point x="324" y="480"/>
      <point x="324" y="546" type="curve" smooth="yes"/>
      <point x="324" y="614"/>
      <point x="270" y="668"/>
      <point x="202" y="668" type="curve" smooth="yes"/>
      <point x="134" y="668"/>
      <point x="80" y="614"/>
      <point x="80" y="546" type="curve" smooth="yes"/>
      <point x="80" y="480"/>
      <point x="134" y="424"/>
    </contour>
    <contour>
      <point x="202" y="636" type="curve" smooth="yes"/>
      <point x="252" y="636"/>
      <point x="292" y="596"/>
      <point x="292" y="546" type="curve" smooth="yes"/>
      <point x="292" y="498"/>
      <point x="252" y="456"/>
      <point x="202" y="456" type="curve" smooth="yes"/>
      <point x="152" y="456"/>
      <point x="112" y="498"/>
      <point x="112" y="546" type="curve" smooth="yes"/>
      <point x="112" y="596"/>
      <point x="152" y="636"/>
    </contour>
    <contour>
      <point x="414" y="-16" type="curve" smooth="yes"/>
      <point x="482" y="-16"/>
      <point x="536" y="38"/>
      <point x="536" y="106" type="curve" smooth="yes"/>
      <point x="536" y="174"/>
      <point x="482" y="228"/>
      <point x="414" y="228" type="curve" smooth="yes"/>
      <point x="346" y="228"/>
      <point x="292" y="174"/>
      <point x="292" y="106" type="curve" smooth="yes"/>
      <point x="292" y="38"/>
      <point x="346" y="-16"/>
    </contour>
    <contour>
      <point x="414" y="196" type="curve" smooth="yes"/>
      <point x="464" y="196"/>
      <point x="504" y="156"/>
      <point x="504" y="106" type="curve" smooth="yes"/>
      <point x="504" y="56"/>
      <point x="464" y="16"/>
      <point x="414" y="16" type="curve" smooth="yes"/>
      <point x="364" y="16"/>
      <point x="324" y="56"/>
      <point x="324" y="106" type="curve" smooth="yes"/>
      <point x="324" y="156"/>
      <point x="364" y="196"/>
    </contour>
  </outline>
</glyph>
<glyph name="parenleft" format="1">
  <advance width="404.0"/>
  <unicode hex="0028"/>
  <outline>
    <contour>
      <point x="324" y="1207" type="curve" smooth="yes"/>
      <point x="191" y="1040"/>
      <point x="112" y="828"/>
      <point x="112" y="600" type="curve" smooth="yes"/>
      <point x="112" y="372"/>
      <point x="191" y="161"/>
      <point x="323" y="-6" type="curve" smooth="yes"/>
      <point x="328" y="-13"/>
      <point x="327" y="-23"/>
      <point x="320" y="-29" type="curve" smooth="yes"/>
      <point x="313" y="-34"/>
      <point x="303" y="-33"/>
      <point x="297" y="-26" type="curve" smooth="yes"/>
      <point x="161" y="147"/>
      <point x="80" y="364"/>
      <point x="80" y="600" type="curve" smooth="yes"/>
      <point x="80" y="836"/>
      <point x="161" y="1054"/>
      <point x="298" y="1227" type="curve" smooth="yes"/>
      <point x="304" y="1234"/>
      <point x="314" y="1235"/>
      <point x="321" y="1230" type="curve" smooth="yes"/>
      <point x="328" y="1224"/>
      <point x="329" y="1214"/>
    </contour>
  </outline>
</glyph>
<glyph name="one" format="1">
  <advance width="616.0"/>
  <unicode hex="0031"/>
  <outline>
    <contour>
      <point x="522" y="32" type="curve"/>
      <point x="326" y="32" type="line"/>
      <point x="326" y="1200" type="line" smooth="yes"/>
      <point x="326" y="1208"/>
      <point x="318" y="1216"/>
      <point x="308" y="1216" type="curve" smooth="yes"/>
      <point x="306" y="1216"/>
      <point x="302" y="1214"/>
      <point x="298" y="1212" type="curve" smooth="yes"/>
      <point x="82" y="996" type="line" smooth="yes"/>
      <point x="78" y="992"/>
      <point x="78" y="986"/>
      <point x="78" y="982" type="curve" smooth="yes"/>
      <point x="78" y="974"/>
      <point x="84" y="968"/>
      <point x="92" y="968" type="curve" smooth="yes"/>
      <point x="96" y="968"/>
      <point x="102" y="968"/>
      <point x="106" y="972" type="curve" smooth="yes"/>
      <point x="294" y="1162" type="line"/>
      <point x="294" y="32" type="line"/>
      <point x="98" y="32" type="line" smooth="yes"/>
      <point x="90" y="32"/>
      <point x="82" y="24"/>
      <point x="82" y="16" type="curve" smooth="yes"/>
      <point x="82" y="8"/>
      <point x="90" y="0"/>
      <point x="98" y="0" type="curve" smooth="yes"/>
      <point x="522" y="0" type="line" smooth="yes"/>
      <point x="530" y="0"/>
      <point x="538" y="8"/>
      <point x="538" y="16" type="curve" smooth="yes"/>
      <point x="538" y="24"/>
      <point x="530" y="32"/>
    </contour>
  </outline>
</glyph>
<glyph name="two" format="1">
  <advance width="952"/>
  <unicode hex="0032"/>
  <outline>
    <contour>
      <point x="856" y="0" type="line" smooth="yes"/>
      <point x="865" y="0"/>
      <point x="872" y="7"/>
      <point x="872" y="16" type="curve" smooth="yes"/>
      <point x="872" y="25"/>
      <point x="865" y="32"/>
      <point x="856" y="32" type="curve" smooth="yes"/>
      <point x="96" y="32" type="line"/>
      <point x="112" y="16" type="line"/>
      <point x="112" y="33" type="line" smooth="yes"/>
      <point x="112" y="233"/>
      <point x="276" y="397"/>
      <point x="476" y="397" type="curve" smooth="yes"/>
      <point x="694" y="397"/>
      <point x="872" y="575"/>
      <point x="872" y="793" type="curve" smooth="yes"/>
      <point x="872" y="820" type="line" smooth="yes"/>
      <point x="872" y="1038"/>
      <point x="694" y="1216"/>
      <point x="476" y="1216" type="curve" smooth="yes"/>
      <point x="258" y="1216"/>
      <point x="80" y="1038"/>
      <point x="80" y="820" type="curve" smooth="yes"/>
      <point x="80" y="811"/>
      <point x="87" y="804"/>
      <point x="96" y="804" type="curve" smooth="yes"/>
      <point x="105" y="804"/>
      <point x="112" y="811"/>
      <point x="112" y="820" type="curve" smooth="yes"/>
      <point x="112" y="1020"/>
      <point x="276" y="1184"/>
      <point x="476" y="1184" type="curve" smooth="yes"/>
      <point x="676" y="1184"/>
      <point x="840" y="1020"/>
      <point x="840" y="820" type="curve" smooth="yes"/>
      <point x="840" y="793" type="line" smooth="yes"/>
      <point x="840" y="593"/>
      <point x="676" y="429"/>
      <point x="476" y="429" type="curve" smooth="yes"/>
      <point x="258" y="429"/>
      <point x="80" y="251"/>
      <point x="80" y="33" type="curve" smooth="yes"/>
      <point x="80" y="16" type="line" smooth="yes"/>
      <point x="80" y="7"/>
      <point x="87" y="0"/>
      <point x="96" y="0" type="curve" smooth="yes"/>
    </contour>
  </outline>
</glyph>
<glyph name="three" format="1">
  <advance width="616.0"/>
  <unicode hex="0033"/>
  <outline>
    <contour>
      <point x="308" y="-32" type="curve" smooth="yes"/>
      <point x="434" y="-32"/>
      <point x="536" y="70"/>
      <point x="536" y="196" type="curve" smooth="yes"/>
      <point x="536" y="486" type="line" smooth="yes"/>
      <point x="536" y="582"/>
      <point x="476" y="664"/>
      <point x="392" y="698" type="curve"/>
      <point x="476" y="730"/>
      <point x="536" y="812"/>
      <point x="536" y="910" type="curve" smooth="yes"/>
      <point x="536" y="1004" type="line" smooth="yes"/>
      <point x="536" y="1130"/>
      <point x="434" y="1232"/>
      <point x="308" y="1232" type="curve" smooth="yes"/>
      <point x="182" y="1232"/>
      <point x="80" y="1130"/>
      <point x="80" y="1004" type="curve" smooth="yes"/>
      <point x="80" y="996"/>
      <point x="88" y="988"/>
      <point x="96" y="988" type="curve" smooth="yes"/>
      <point x="104" y="988"/>
      <point x="112" y="996"/>
      <point x="112" y="1004" type="curve" smooth="yes"/>
      <point x="112" y="1112"/>
      <point x="200" y="1200"/>
      <point x="308" y="1200" type="curve" smooth="yes"/>
      <point x="416" y="1200"/>
      <point x="504" y="1112"/>
      <point x="504" y="1004" type="curve" smooth="yes"/>
      <point x="504" y="910" type="line" smooth="yes"/>
      <point x="504" y="800"/>
      <point x="418" y="714"/>
      <point x="308" y="714" type="curve" smooth="yes"/>
      <point x="300" y="714"/>
      <point x="292" y="706"/>
      <point x="292" y="698" type="curve" smooth="yes"/>
      <point x="292" y="688"/>
      <point x="300" y="682"/>
      <point x="308" y="682" type="curve" smooth="yes"/>
      <point x="416" y="682"/>
      <point x="504" y="594"/>
      <point x="504" y="486" type="curve" smooth="yes"/>
      <point x="504" y="196" type="line" smooth="yes"/>
      <point x="504" y="88"/>
      <point x="416" y="0"/>
      <point x="308" y="0" type="curve" smooth="yes"/>
      <point x="200" y="0"/>
      <point x="112" y="88"/>
      <point x="112" y="196" type="curve" smooth="yes"/>
      <point x="112" y="204"/>
      <point x="104" y="212"/>
      <point x="96" y="212" type="curve" smooth="yes"/>
      <point x="88" y="212"/>
      <point x="80" y="204"/>
      <point x="80" y="196" type="curve" smooth="yes"/>
      <point x="80" y="70"/>
      <point x="182" y="-32"/>
    </contour>
  </outline>
</glyph>
<glyph name="four" format="1">
  <advance width="952"/>
  <unicode hex="0034"/>
  <outline>
    <contour>
      <point x="846" y="268" type="line" smooth="yes"/>
      <point x="855" y="268"/>
      <point x="862" y="275"/>
      <point x="862" y="284" type="curve" smooth="yes"/>
      <point x="862" y="293"/>
      <point x="855" y="300"/>
      <point x="846" y="300" type="curve" smooth="yes"/>
      <point x="96" y="300" type="line"/>
      <point x="111" y="278" type="line"/>
      <point x="491" y="1178" type="line"/>
      <point x="476" y="1168" type="line"/>
      <point x="856" y="1168" type="line"/>
      <point x="840" y="1184" type="line"/>
      <point x="840" y="16" type="line" smooth="yes"/>
      <point x="840" y="7"/>
      <point x="847" y="0"/>
      <point x="856" y="0" type="curve" smooth="yes"/>
      <point x="865" y="0"/>
      <point x="872" y="7"/>
      <point x="872" y="16" type="curve" smooth="yes"/>
      <point x="872" y="1184" type="line" smooth="yes"/>
      <point x="872" y="1193"/>
      <point x="865" y="1200"/>
      <point x="856" y="1200" type="curve" smooth="yes"/>
      <point x="476" y="1200" type="line" smooth="yes"/>
      <point x="470" y="1200"/>
      <point x="464" y="1196"/>
      <point x="461" y="1190" type="curve" smooth="yes"/>
      <point x="81" y="290" type="line" smooth="yes"/>
      <point x="76" y="278"/>
      <point x="83" y="268"/>
      <point x="96" y="268" type="curve" smooth="yes"/>
    </contour>
  </outline>
</glyph>
<glyph name="five" format="1">
  <advance width="952"/>
  <unicode hex="0035"/>
  <outline>
    <contour>
      <point x="112" y="396" type="curve" smooth="yes"/>
      <point x="112" y="405"/>
      <point x="105" y="412"/>
      <point x="96" y="412" type="curve" smooth="yes"/>
      <point x="87" y="412"/>
      <point x="80" y="405"/>
      <point x="80" y="396" type="curve" smooth="yes"/>
      <point x="80" y="178"/>
      <point x="258" y="0"/>
      <point x="476" y="0" type="curve" smooth="yes"/>
      <point x="694" y="0"/>
      <point x="872" y="178"/>
      <point x="872" y="396" type="curve" smooth="yes"/>
      <point x="872" y="423" type="line" smooth="yes"/>
      <point x="872" y="641"/>
      <point x="694" y="819"/>
      <point x="476" y="819" type="curve" smooth="yes"/>
      <point x="96" y="819" type="line"/>
      <point x="112" y="803" type="line"/>
      <point x="112" y="1200" type="line"/>
      <point x="96" y="1184" type="line"/>
      <point x="856" y="1184" type="line" smooth="yes"/>
      <point x="865" y="1184"/>
      <point x="872" y="1191"/>
      <point x="872" y="1200" type="curve" smooth="yes"/>
      <point x="872" y="1209"/>
      <point x="865" y="1216"/>
      <point x="856" y="1216" type="curve" smooth="yes"/>
      <point x="96" y="1216" type="line" smooth="yes"/>
      <point x="87" y="1216"/>
      <point x="80" y="1209"/>
      <point x="80" y="1200" type="curve" smooth="yes"/>
      <point x="80" y="803" type="line" smooth="yes"/>
      <point x="80" y="794"/>
      <point x="87" y="787"/>
      <point x="96" y="787" type="curve" smooth="yes"/>
      <point x="476" y="787" type="line" smooth="yes"/>
      <point x="676" y="787"/>
      <point x="840" y="623"/>
      <point x="840" y="423" type="curve" smooth="yes"/>
      <point x="840" y="396" type="line" smooth="yes"/>
      <point x="840" y="196"/>
      <point x="676" y="32"/>
      <point x="476" y="32" type="curve" smooth="yes"/>
      <point x="276" y="32"/>
      <point x="112" y="196"/>
    </contour>
  </outline>
</glyph>
<glyph name="six" format="1">
  <advance width="952"/>
  <unicode hex="0036"/>
  <outline>
    <contour>
      <point x="840" y="820" type="curve" smooth="yes"/>
      <point x="840" y="811"/>
      <point x="847" y="804"/>
      <point x="856" y="804" type="curve" smooth="yes"/>
      <point x="865" y="804"/>
      <point x="872" y="811"/>
      <point x="872" y="820" type="curve" smooth="yes"/>
      <point x="872" y="1038"/>
      <point x="694" y="1216"/>
      <point x="476" y="1216" type="curve" smooth="yes"/>
      <point x="258" y="1216"/>
      <point x="80" y="1038"/>
      <point x="80" y="820" type="curve" smooth="yes"/>
      <point x="80" y="378" type="line" smooth="yes"/>
      <point x="80" y="160"/>
      <point x="258" y="-16"/>
      <point x="476" y="-16" type="curve" smooth="yes"/>
      <point x="694" y="-16"/>
      <point x="872" y="160"/>
      <point x="872" y="378" type="curve" smooth="yes"/>
      <point x="872" y="450" type="line" smooth="yes"/>
      <point x="872" y="668"/>
      <point x="694" y="846"/>
      <point x="476" y="846" type="curve" smooth="yes"/>
      <point x="273" y="846"/>
      <point x="104" y="691"/>
      <point x="82" y="493" type="curve" smooth="yes"/>
      <point x="81" y="484"/>
      <point x="88" y="476"/>
      <point x="96" y="475" type="curve" smooth="yes"/>
      <point x="105" y="474"/>
      <point x="113" y="481"/>
      <point x="114" y="489" type="curve" smooth="yes"/>
      <point x="134" y="671"/>
      <point x="289" y="814"/>
      <point x="476" y="814" type="curve" smooth="yes"/>
      <point x="676" y="814"/>
      <point x="840" y="650"/>
      <point x="840" y="450" type="curve" smooth="yes"/>
      <point x="840" y="378" type="line" smooth="yes"/>
      <point x="840" y="178"/>
      <point x="676" y="16"/>
      <point x="476" y="16" type="curve" smooth="yes"/>
      <point x="276" y="16"/>
      <point x="112" y="178"/>
      <point x="112" y="378" type="curve" smooth="yes"/>
      <point x="112" y="820" type="line" smooth="yes"/>
      <point x="112" y="1020"/>
      <point x="276" y="1184"/>
      <point x="476" y="1184" type="curve" smooth="yes"/>
      <point x="676" y="1184"/>
      <point x="840" y="1020"/>
    </contour>
  </outline>
</glyph>
<glyph name="seven" format="1">
  <advance width="952"/>
  <unicode hex="0037"/>
  <outline>
    <contour>
      <point x="96" y="1200" type="line" smooth="yes"/>
      <point x="87" y="1200"/>
      <point x="80" y="1193"/>
      <point x="80" y="1184" type="curve" smooth="yes"/>
      <point x="80" y="1175"/>
      <point x="87" y="1168"/>
      <point x="96" y="1168" type="curve" smooth="yes"/>
      <point x="856" y="1168" type="line"/>
      <point x="841" y="1189" type="line"/>
      <point x="441" y="21" type="line" smooth="yes"/>
      <point x="438" y="13"/>
      <point x="443" y="4"/>
      <point x="451" y="1" type="curve" smooth="yes"/>
      <point x="459" y="-2"/>
      <point x="468" y="3"/>
      <point x="471" y="11" type="curve" smooth="yes"/>
      <point x="871" y="1179" type="line" smooth="yes"/>
      <point x="875" y="1191"/>
      <point x="868" y="1200"/>
      <point x="856" y="1200" type="curve" smooth="yes"/>
    </contour>
  </outline>
</glyph>
<glyph name="less" format="1">
  <advance width="791"/>
  <unicode hex="003C"/>
  <outline>
    <contour>
      <point x="690" y="-11" type="line" smooth="yes"/>
      <point x="697" y="-16"/>
      <point x="707" y="-14"/>
      <point x="712" y="-7" type="curve" smooth="yes"/>
      <point x="717" y="0"/>
      <point x="715" y="10"/>
      <point x="708" y="15" type="curve" smooth="yes"/>
      <point x="102" y="439" type="line"/>
      <point x="102" y="413" type="line"/>
      <point x="706" y="835" type="line" smooth="yes"/>
      <point x="713" y="840"/>
      <point x="715" y="850"/>
      <point x="710" y="857" type="curve" smooth="yes"/>
      <point x="705" y="864"/>
      <point x="695" y="866"/>
      <point x="688" y="861" type="curve" smooth="yes"/>
      <point x="84" y="439" type="line" smooth="yes"/>
      <point x="73" y="432"/>
      <point x="73" y="420"/>
      <point x="84" y="413" type="curve" smooth="yes"/>
    </contour>
  </outline>
</glyph>
<glyph name="question" format="1">
  <advance width="1094"/>
  <unicode hex="003F"/>
  <outline>
    <contour>
      <point x="547" y="-4" type="curve" smooth="yes"/>
      <point x="559" y="-4"/>
      <point x="571" y="8"/>
      <point x="571" y="20" type="curve" smooth="yes"/>
      <point x="571" y="32"/>
      <point x="559" y="44"/>
      <point x="547" y="44" type="curve" smooth="yes"/>
      <point x="535" y="44"/>
      <point x="523" y="32"/>
      <point x="523" y="20" type="curve" smooth="yes"/>
      <point x="523" y="8"/>
      <point x="535" y="-4"/>
    </contour>
    <contour>
      <point x="531" y="179" type="line" smooth="yes"/>
      <point x="531" y="170"/>
      <point x="538" y="163"/>
      <point x="547" y="163" type="curve" smooth="yes"/>
      <point x="556" y="163"/>
      <point x="563" y="170"/>
      <point x="563" y="179" type="curve" smooth="yes"/>
      <point x="563" y="283" type="line"/>
      <point x="547" y="267" type="line"/>
      <point x="804" y="267"/>
      <point x="1014" y="477"/>
      <point x="1014" y="734" type="curve" smooth="yes"/>
      <point x="1014" y="765" type="line" smooth="yes"/>
      <point x="1014" y="1022"/>
      <point x="804" y="1232"/>
      <point x="547" y="1232" type="curve" smooth="yes"/>
      <point x="290" y="1232"/>
      <point x="80" y="1022"/>
      <point x="80" y="765" type="curve" smooth="yes"/>
      <point x="80" y="756"/>
      <point x="87" y="749"/>
      <point x="96" y="749" type="curve" smooth="yes"/>
      <point x="105" y="749"/>
      <point x="112" y="756"/>
      <point x="112" y="765" type="curve" smooth="yes"/>
      <point x="112" y="1004"/>
      <point x="308" y="1200"/>
      <point x="547" y="1200" type="curve" smooth="yes"/>
      <point x="786" y="1200"/>
      <point x="982" y="1004"/>
      <point x="982" y="765" type="curve" smooth="yes"/>
      <point x="982" y="734" type="line" smooth="yes"/>
      <point x="982" y="495"/>
      <point x="786" y="299"/>
      <point x="547" y="299" type="curve" smooth="yes"/>
      <point x="538" y="299"/>
      <point x="531" y="292"/>
      <point x="531" y="283" type="curve" smooth="yes"/>
    </contour>
  </outline>
</glyph>
<glyph name="L" format="1">
  <advance width="1328"/>
  <unicode hex="004C"/>
  <outline>
    <contour>
      <point x="112" y="1184" type="line" smooth="yes"/>
      <point x="112" y="1193"/>
      <point x="105" y="1200"/>
      <point x="96" y="1200" type="curve" smooth="yes"/>
      <point x="87" y="1200"/>
      <point x="80" y="1193"/>
      <point x="80" y="1184" type="curve" smooth="yes"/>
      <point x="80" y="16" type="line" smooth="yes"/>
      <point x="80" y="7"/>
      <point x="87" y="0"/>
      <point x="96" y="0" type="curve" smooth="yes"/>
      <point x="1232" y="0" type="line" smooth="yes"/>
      <point x="1241" y="0"/>
      <point x="1248" y="7"/>
      <point x="1248" y="16" type="curve" smooth="yes"/>
      <point x="1248" y="25"/>
      <point x="1241" y="32"/>
      <point x="1232" y="32" type="curve" smooth="yes"/>
      <point x="96" y="32" type="line"/>
      <point x="112" y="16" type="line"/>
    </contour>
  </outline>
</glyph>
<glyph name="M" format="1">
  <advance width="1344.0"/>
  <unicode hex="004D"/>
  <outline>
    <contour>
      <point x="80" y="16" type="line" smooth="yes"/>
      <point x="80" y="7"/>
      <point x="87" y="0"/>
      <point x="96" y="0" type="curve" smooth="yes"/>
      <point x="105" y="0"/>
      <point x="112" y="7"/>
      <point x="112" y="16" type="curve" smooth="yes"/>
      <point x="112" y="1200" type="line"/>
      <point x="85" y="1189" type="line"/>
      <point x="661" y="613" type="line" smooth="yes"/>
      <point x="667" y="606"/>
      <point x="677" y="606"/>
      <point x="683" y="613" type="curve" smooth="yes"/>
      <point x="1259" y="1189" type="line"/>
      <point x="1232" y="1200" type="line"/>
      <point x="1232" y="16" type="line" smooth="yes"/>
      <point x="1232" y="7"/>
      <point x="1239" y="0"/>
      <point x="1248" y="0" type="curve" smooth="yes"/>
      <point x="1257" y="0"/>
      <point x="1264" y="7"/>
      <point x="1264" y="16" type="curve" smooth="yes"/>
      <point x="1264" y="1200" type="line" smooth="yes"/>
      <point x="1264" y="1216"/>
      <point x="1248" y="1222"/>
      <point x="1237" y="1211" type="curve" smooth="yes"/>
      <point x="661" y="635" type="line"/>
      <point x="683" y="635" type="line"/>
      <point x="107" y="1211" type="line" smooth="yes"/>
      <point x="96" y="1222"/>
      <point x="80" y="1216"/>
      <point x="80" y="1200" type="curve" smooth="yes"/>
    </contour>
  </outline>
</glyph>
<glyph name="N" format="1">
  <advance width="1344"/>
  <unicode hex="004E"/>
  <outline>
    <contour>
      <point x="80" y="16" type="line" smooth="yes"/>
      <point x="80" y="7"/>
      <point x="87" y="0"/>
      <point x="96" y="0" type="curve" smooth="yes"/>
      <point x="105" y="0"/>
      <point x="112" y="7"/>
      <point x="112" y="16" type="curve" smooth="yes"/>
      <point x="112" y="1184" type="line"/>
      <point x="85" y="1173" type="line"/>
      <point x="1237" y="5" type="line" smooth="yes"/>
      <point x="1248" y="-6"/>
      <point x="1264" y="0"/>
      <point x="1264" y="16" type="curve" smooth="yes"/>
      <point x="1264" y="1184" type="line" smooth="yes"/>
      <point x="1264" y="1193"/>
      <point x="1257" y="1200"/>
      <point x="1248" y="1200" type="curve" smooth="yes"/>
      <point x="1239" y="1200"/>
      <point x="1232" y="1193"/>
      <point x="1232" y="1184" type="curve" smooth="yes"/>
      <point x="1232" y="16" type="line"/>
      <point x="1259" y="27" type="line"/>
      <point x="107" y="1195" type="line" smooth="yes"/>
      <point x="96" y="1206"/>
      <point x="80" y="1200"/>
      <point x="80" y="1184" type="curve" smooth="yes"/>
    </contour>
  </outline>
</glyph>
<glyph name="O" format="1">
  <advance width="1345.0"/>
  <unicode hex="004F"/>
  <outline>
    <contour>
      <point x="673" y="-32" type="curve" smooth="yes"/>
      <point x="999" y="-32"/>
      <point x="1265" y="234"/>
      <point x="1265" y="561" type="curve" smooth="yes"/>
      <point x="1265" y="624" type="line" smooth="yes"/>
      <point x="1265" y="950"/>
      <point x="999" y="1216"/>
      <point x="673" y="1216" type="curve" smooth="yes"/>
      <point x="346" y="1216"/>
      <point x="80" y="950"/>
      <point x="80" y="624" type="curve" smooth="yes"/>
      <point x="80" y="561" type="line" smooth="yes"/>
      <point x="80" y="234"/>
      <point x="346" y="-32"/>
    </contour>
    <contour>
      <point x="673" y="1184" type="curve" smooth="yes"/>
      <point x="981" y="1184"/>
      <point x="1233" y="932"/>
      <point x="1233" y="624" type="curve" smooth="yes"/>
      <point x="1233" y="561" type="line" smooth="yes"/>
      <point x="1233" y="252"/>
      <point x="981" y="0"/>
      <point x="673" y="0" type="curve" smooth="yes"/>
      <point x="364" y="0"/>
      <point x="112" y="252"/>
      <point x="112" y="561" type="curve" smooth="yes"/>
      <point x="112" y="624" type="line" smooth="yes"/>
      <point x="112" y="932"/>
      <point x="364" y="1184"/>
    </contour>
  </outline>
</glyph>
<glyph name="Z" format="1">
  <advance width="1344.37100223"/>
  <unicode hex="005A"/>
  <outline>
    <contour>
      <point x="96" y="1200" type="line" smooth="yes"/>
      <point x="87" y="1200"/>
      <point x="80" y="1193"/>
      <point x="80" y="1184" type="curve" smooth="yes"/>
      <point x="80" y="1175"/>
      <point x="87" y="1168"/>
      <point x="96" y="1168" type="curve" smooth="yes"/>
      <point x="1248" y="1168" type="line"/>
      <point x="1237" y="1195" type="line"/>
      <point x="85" y="27" type="line" smooth="yes"/>
      <point x="74" y="16"/>
      <point x="81" y="0"/>
      <point x="96" y="0" type="curve" smooth="yes"/>
      <point x="1248" y="0" type="line" smooth="yes"/>
      <point x="1257" y="0"/>
      <point x="1264" y="7"/>
      <point x="1264" y="16" type="curve" smooth="yes"/>
      <point x="1264" y="25"/>
      <point x="1257" y="32"/>
      <point x="1248" y="32" type="curve" smooth="yes"/>
      <point x="96" y="32" type="line"/>
      <point x="107" y="5" type="line"/>
      <point x="1259" y="1173" type="line" smooth="yes"/>
      <point x="1270" y="1184"/>
      <point x="1263" y="1200"/>
      <point x="1248" y="1200" type="curve" smooth="yes"/>
    </contour>
  </outline>
</glyph>
<glyph name="bracketright" format="1">
  <advance width="474"/>
  <unicode hex="005D"/>
  <outline>
    <contour>
      <point x="76" y="0" type="line" smooth="yes"/>
      <point x="67" y="0"/>
      <point x="60" y="-7"/>
      <point x="60" y="-16" type="curve" smooth="yes"/>
      <point x="60" y="-25"/>
      <point x="67" y="-32"/>
      <point x="76" y="-32" type="curve" smooth="yes"/>
      <point x="338" y="-32" type="line" smooth="yes"/>
      <point x="347" y="-32"/>
      <point x="354" y="-25"/>
      <point x="354" y="-16" type="curve" smooth="yes"/>
      <point x="354" y="1216" type="line" smooth="yes"/>
      <point x="354" y="1225"/>
      <point x="347" y="1232"/>
      <point x="338" y="1232" type="curve" smooth="yes"/>
      <point x="76" y="1232" type="line" smooth="yes"/>
      <point x="67" y="1232"/>
      <point x="60" y="1225"/>
      <point x="60" y="1216" type="curve" smooth="yes"/>
      <point x="60" y="1207"/>
      <point x="67" y="1200"/>
      <point x="76" y="1200" type="curve" smooth="yes"/>
      <point x="338" y="1200" type="line"/>
      <point x="322" y="1216" type="line"/>
      <point x="322" y="-16" type="line"/>
      <point x="338" y="0" type="line"/>
    </contour>
  </outline>
</glyph>
<glyph name="x" format="1">
  <advance width="1093.5"/>
  <unicode hex="0078"/>
  <outline>
    <contour>
      <point x="1009" y="906" type="line" smooth="yes"/>
      <point x="1015" y="912"/>
      <point x="1015" y="922"/>
      <point x="1009" y="928" type="curve" smooth="yes"/>
      <point x="1003" y="934"/>
      <point x="993" y="934"/>
      <point x="987" y="928" type="curve" smooth="yes"/>
      <point x="85" y="27" type="line" smooth="yes"/>
      <point x="79" y="21"/>
      <point x="79" y="11"/>
      <point x="85" y="5" type="curve" smooth="yes"/>
      <point x="91" y="-1"/>
      <point x="101" y="-1"/>
      <point x="107" y="5" type="curve" smooth="yes"/>
    </contour>
    <contour>
      <point x="987" y="5" type="line" smooth="yes"/>
      <point x="993" y="-1"/>
      <point x="1003" y="-1"/>
      <point x="1009" y="5" type="curve" smooth="yes"/>
      <point x="1015" y="11"/>
      <point x="1015" y="21"/>
      <point x="1009" y="27" type="curve" smooth="yes"/>
      <point x="107" y="928" type="line" smooth="yes"/>
      <point x="101" y="934"/>
      <point x="91" y="934"/>
      <point x="85" y="928" type="curve" smooth="yes"/>
      <point x="79" y="922"/>
      <point x="79" y="912"/>
      <point x="85" y="906" type="curve" smooth="yes"/>
    </contour>
  </outline>
</glyph>
<glyph name="y" format="1">
  <advance width="1093.76404687"/>
  <unicode hex="0079"/>
  <outline>
    <contour>
      <point x="110" y="924" type="line" smooth="yes"/>
      <point x="106" y="932"/>
      <point x="96" y="935"/>
      <point x="89" y="931" type="curve" smooth="yes"/>
      <point x="81" y="927"/>
      <point x="78" y="917"/>
      <point x="82" y="910" type="curve" smooth="yes"/>
      <point x="533" y="42" type="line" smooth="yes"/>
      <point x="537" y="34"/>
      <point x="547" y="31"/>
      <point x="554" y="35" type="curve" smooth="yes"/>
      <point x="562" y="39"/>
      <point x="565" y="49"/>
      <point x="561" y="56" type="curve" smooth="yes"/>
    </contour>
    <contour>
      <point x="258" y="-480" type="line" smooth="yes"/>
      <point x="254" y="-487"/>
      <point x="257" y="-497"/>
      <point x="265" y="-501" type="curve" smooth="yes"/>
      <point x="272" y="-505"/>
      <point x="282" y="-502"/>
      <point x="286" y="-494" type="curve" smooth="yes"/>
      <point x="1012" y="910" type="line" smooth="yes"/>
      <point x="1016" y="917"/>
      <point x="1013" y="927"/>
      <point x="1005" y="931" type="curve" smooth="yes"/>
      <point x="998" y="935"/>
      <point x="988" y="932"/>
      <point x="984" y="924" type="curve" smooth="yes"/>
    </contour>
  </outline>
</glyph>
<glyph name="sterling" format="1">
  <advance width="936"/>
  <unicode hex="00A3"/>
  <outline>
    <contour>
      <point x="734" y="1184" type="curve" smooth="yes"/>
      <point x="743" y="1184"/>
      <point x="750" y="1191"/>
      <point x="750" y="1200" type="curve" smooth="yes"/>
      <point x="750" y="1209"/>
      <point x="743" y="1216"/>
      <point x="734" y="1216" type="curve" smooth="yes"/>
      <point x="477" y="1216"/>
      <point x="267" y="1006"/>
      <point x="267" y="749" type="curve" smooth="yes"/>
      <point x="267" y="203" type="line" smooth="yes"/>
      <point x="267" y="100"/>
      <point x="183" y="16"/>
      <point x="80" y="16" type="curve"/>
      <point x="80" y="-16" type="line"/>
      <point x="840" y="-16" type="line" smooth="yes"/>
      <point x="849" y="-16"/>
      <point x="856" y="-9"/>
      <point x="856" y="0" type="curve" smooth="yes"/>
      <point x="856" y="9"/>
      <point x="849" y="16"/>
      <point x="840" y="16" type="curve" smooth="yes"/>
      <point x="80" y="16" type="line"/>
      <point x="80" y="-16" type="line"/>
      <point x="201" y="-16"/>
      <point x="299" y="82"/>
      <point x="299" y="203" type="curve" smooth="yes"/>
      <point x="299" y="749" type="line" smooth="yes"/>
      <point x="299" y="988"/>
      <point x="495" y="1184"/>
    </contour>
    <contour>
      <point x="598" y="574" type="line" smooth="yes"/>
      <point x="607" y="574"/>
      <point x="614" y="581"/>
      <point x="614" y="590" type="curve" smooth="yes"/>
      <point x="614" y="599"/>
      <point x="607" y="606"/>
      <point x="598" y="606" type="curve" smooth="yes"/>
      <point x="293" y="606" type="line" smooth="yes"/>
      <point x="284" y="606"/>
      <point x="277" y="599"/>
      <point x="277" y="590" type="curve" smooth="yes"/>
      <point x="277" y="581"/>
      <point x="284" y="574"/>
      <point x="293" y="574" type="curve" smooth="yes"/>
    </contour>
  </outline>
</glyph>
<glyph name="yen" format="1">
  <advance width="1307"/>
  <unicode hex="00A5"/>
  <outline>
    <contour>
      <point x="96" y="1195" type="line" smooth="yes"/>
      <point x="90" y="1201"/>
      <point x="80" y="1201"/>
      <point x="74" y="1195" type="curve" smooth="yes"/>
      <point x="68" y="1189"/>
      <point x="68" y="1179"/>
      <point x="74" y="1173" type="curve" smooth="yes"/>
      <point x="643" y="589" type="line" smooth="yes"/>
      <point x="649" y="582"/>
      <point x="659" y="582"/>
      <point x="665" y="589" type="curve" smooth="yes"/>
      <point x="1232" y="1173" type="line" smooth="yes"/>
      <point x="1238" y="1179"/>
      <point x="1238" y="1189"/>
      <point x="1232" y="1195" type="curve" smooth="yes"/>
      <point x="1226" y="1201"/>
      <point x="1216" y="1201"/>
      <point x="1210" y="1195" type="curve" smooth="yes"/>
      <point x="643" y="611" type="line"/>
      <point x="665" y="611" type="line"/>
    </contour>
    <contour>
      <point x="637" y="16" type="line" smooth="yes"/>
      <point x="637" y="7"/>
      <point x="644" y="0"/>
      <point x="653" y="0" type="curve" smooth="yes"/>
      <point x="662" y="0"/>
      <point x="669" y="7"/>
      <point x="669" y="16" type="curve" smooth="yes"/>
      <point x="669" y="600" type="line" smooth="yes"/>
      <point x="669" y="609"/>
      <point x="662" y="616"/>
      <point x="653" y="616" type="curve" smooth="yes"/>
      <point x="644" y="616"/>
      <point x="637" y="609"/>
      <point x="637" y="600" type="curve" smooth="yes"/>
    </contour>
    <contour>
      <point x="416" y="446" type="line" smooth="yes"/>
      <point x="407" y="446"/>
      <point x="400" y="439"/>
      <point x="400" y="430" type="curve" smooth="yes"/>
      <point x="400" y="421"/>
      <point x="407" y="414"/>
      <point x="416" y="414" type="curve" smooth="yes"/>
      <point x="891" y="414" type="line" smooth="yes"/>
      <point x="900" y="414"/>
      <point x="907" y="421"/>
      <point x="907" y="430" type="curve" smooth="yes"/>
      <point x="907" y="439"/>
      <point x="900" y="446"/>
      <point x="891" y="446" type="curve" smooth="yes"/>
    </contour>
    <contour>
      <point x="416" y="366" type="line" smooth="yes"/>
      <point x="407" y="366"/>
      <point x="400" y="359"/>
      <point x="400" y="350" type="curve" smooth="yes"/>
      <point x="400" y="341"/>
      <point x="407" y="334"/>
      <point x="416" y="334" type="curve" smooth="yes"/>
      <point x="891" y="334" type="line" smooth="yes"/>
      <point x="900" y="334"/>
      <point x="907" y="341"/>
      <point x="907" y="350" type="curve" smooth="yes"/>
      <point x="907" y="359"/>
      <point x="900" y="366"/>
      <point x="891" y="366" type="curve" smooth="yes"/>
    </contour>
  </outline>
</glyph>
<glyph name="section" format="1">
  <advance width="1000.0"/>
  <unicode hex="00A7"/>
  <outline>
    <contour>
      <point x="673" y="909" type="curve" smooth="yes"/>
      <point x="673" y="900"/>
      <point x="680" y="893"/>
      <point x="689" y="893" type="curve" smooth="yes"/>
      <point x="698" y="893"/>
      <point x="705" y="900"/>
      <point x="705" y="909" type="curve" smooth="yes"/>
      <point x="705" y="1046"/>
      <point x="594" y="1157"/>
      <point x="457" y="1157" type="curve" smooth="yes"/>
      <point x="448" y="1157" type="line" smooth="yes"/>
      <point x="311" y="1157"/>
      <point x="200" y="1046"/>
      <point x="200" y="909" type="curve" smooth="yes"/>
      <point x="200" y="904" type="line" smooth="yes"/>
      <point x="200" y="767"/>
      <point x="311" y="656"/>
      <point x="448" y="656" type="curve" smooth="yes"/>
      <point x="582" y="656" type="line" smooth="yes"/>
      <point x="733" y="656"/>
      <point x="856" y="533"/>
      <point x="856" y="382" type="curve" smooth="yes"/>
      <point x="856" y="373" type="line" smooth="yes"/>
      <point x="856" y="223"/>
      <point x="733" y="99"/>
      <point x="582" y="99" type="curve" smooth="yes"/>
      <point x="526" y="99" type="line" smooth="yes"/>
      <point x="517" y="99"/>
      <point x="510" y="92"/>
      <point x="510" y="83" type="curve" smooth="yes"/>
      <point x="510" y="74"/>
      <point x="517" y="67"/>
      <point x="526" y="67" type="curve" smooth="yes"/>
      <point x="582" y="67" type="line" smooth="yes"/>
      <point x="751" y="67"/>
      <point x="888" y="205"/>
      <point x="888" y="373" type="curve" smooth="yes"/>
      <point x="888" y="382" type="line" smooth="yes"/>
      <point x="888" y="551"/>
      <point x="751" y="688"/>
      <point x="582" y="688" type="curve" smooth="yes"/>
      <point x="448" y="688" type="line" smooth="yes"/>
      <point x="329" y="688"/>
      <point x="232" y="785"/>
      <point x="232" y="904" type="curve" smooth="yes"/>
      <point x="232" y="909" type="line" smooth="yes"/>
      <point x="232" y="1028"/>
      <point x="329" y="1125"/>
      <point x="448" y="1125" type="curve" smooth="yes"/>
      <point x="457" y="1125" type="line" smooth="yes"/>
      <point x="576" y="1125"/>
      <point x="673" y="1028"/>
    </contour>
    <contour>
      <point x="301" y="-154" type="curve" smooth="yes"/>
      <point x="301" y="-145"/>
      <point x="294" y="-138"/>
      <point x="285" y="-138" type="curve" smooth="yes"/>
      <point x="276" y="-138"/>
      <point x="269" y="-145"/>
      <point x="269" y="-154" type="curve" smooth="yes"/>
      <point x="269" y="-291"/>
      <point x="380" y="-402"/>
      <point x="517" y="-402" type="curve" smooth="yes"/>
      <point x="526" y="-402" type="line" smooth="yes"/>
      <point x="663" y="-402"/>
      <point x="774" y="-291"/>
      <point x="774" y="-154" type="curve" smooth="yes"/>
      <point x="774" y="-149" type="line" smooth="yes"/>
      <point x="774" y="-12"/>
      <point x="663" y="99"/>
      <point x="526" y="99" type="curve" smooth="yes"/>
      <point x="392" y="99" type="line" smooth="yes"/>
      <point x="241" y="99"/>
      <point x="118" y="222"/>
      <point x="118" y="373" type="curve" smooth="yes"/>
      <point x="118" y="382" type="line" smooth="yes"/>
      <point x="118" y="532"/>
      <point x="241" y="656"/>
      <point x="392" y="656" type="curve" smooth="yes"/>
      <point x="448" y="656" type="line" smooth="yes"/>
      <point x="457" y="656"/>
      <point x="464" y="663"/>
      <point x="464" y="672" type="curve" smooth="yes"/>
      <point x="464" y="681"/>
      <point x="457" y="688"/>
      <point x="448" y="688" type="curve" smooth="yes"/>
      <point x="392" y="688" type="line" smooth="yes"/>
      <point x="223" y="688"/>
      <point x="86" y="550"/>
      <point x="86" y="382" type="curve" smooth="yes"/>
      <point x="86" y="373" type="line" smooth="yes"/>
      <point x="86" y="204"/>
      <point x="223" y="67"/>
      <point x="392" y="67" type="curve" smooth="yes"/>
      <point x="526" y="67" type="line" smooth="yes"/>
      <point x="645" y="67"/>
      <point x="742" y="-30"/>
      <point x="742" y="-149" type="curve" smooth="yes"/>
      <point x="742" y="-154" type="line" smooth="yes"/>
      <point x="742" y="-273"/>
      <point x="645" y="-370"/>
      <point x="526" y="-370" type="curve" smooth="yes"/>
      <point x="517" y="-370" type="line" smooth="yes"/>
      <point x="398" y="-370"/>
      <point x="301" y="-273"/>
    </contour>
  </outline>
</glyph>
<glyph name="copyright" format="1">
  <advance width="1345"/>
  <unicode hex="00A9"/>
  <outline>
    <contour>
      <point x="936" y="886" type="curve" smooth="yes"/>
      <point x="942" y="880"/>
      <point x="952" y="880"/>
      <point x="958" y="886" type="curve" smooth="yes"/>
      <point x="964" y="892"/>
      <point x="964" y="902"/>
      <point x="958" y="908" type="curve" smooth="yes"/>
      <point x="886" y="982"/>
      <point x="781" y="1028"/>
      <point x="669" y="1028" type="curve" smooth="yes"/>
      <point x="442" y="1028"/>
      <point x="259" y="845"/>
      <point x="259" y="619" type="curve" smooth="yes"/>
      <point x="259" y="561" type="line" smooth="yes"/>
      <point x="259" y="335"/>
      <point x="442" y="152"/>
      <point x="669" y="152" type="curve" smooth="yes"/>
      <point x="781" y="152"/>
      <point x="886" y="198"/>
      <point x="958" y="272" type="curve" smooth="yes"/>
      <point x="964" y="278"/>
      <point x="964" y="288"/>
      <point x="958" y="294" type="curve" smooth="yes"/>
      <point x="952" y="300"/>
      <point x="942" y="300"/>
      <point x="936" y="294" type="curve" smooth="yes"/>
      <point x="868" y="226"/>
      <point x="773" y="184"/>
      <point x="669" y="184" type="curve" smooth="yes"/>
      <point x="460" y="184"/>
      <point x="291" y="353"/>
      <point x="291" y="561" type="curve" smooth="yes"/>
      <point x="291" y="619" type="line" smooth="yes"/>
      <point x="291" y="827"/>
      <point x="460" y="996"/>
      <point x="669" y="996" type="curve" smooth="yes"/>
      <point x="773" y="996"/>
      <point x="868" y="954"/>
    </contour>
    <component base="O"/>
  </outline>
</glyph>
<glyph name="acute" format="1">
  <advance width="318.0"/>
  <unicode hex="00B4"/>
  <outline>
    <contour>
      <point x="263" y="1419" type="line" smooth="yes"/>
      <point x="269" y="1425"/>
      <point x="269" y="1435"/>
      <point x="263" y="1441" type="curve" smooth="yes"/>
      <point x="257" y="1447"/>
      <point x="247" y="1447"/>
      <point x="241" y="1441" type="curve" smooth="yes"/>
      <point x="87" y="1289" type="line" smooth="yes"/>
      <point x="81" y="1283"/>
      <point x="81" y="1273"/>
      <point x="87" y="1267" type="curve" smooth="yes"/>
      <point x="93" y="1261"/>
      <point x="103" y="1261"/>
      <point x="109" y="1267" type="curve" smooth="yes"/>
    </contour>
  </outline>
</glyph>
<glyph name="one.sup" format="1">
  <advance width="582"/>
  <unicode hex="00B9"/>
  <outline>
    <contour>
      <point x="275" y="613" type="line" smooth="yes"/>
      <point x="275" y="604"/>
      <point x="282" y="597"/>
      <point x="291" y="597" type="curve" smooth="yes"/>
      <point x="300" y="597"/>
      <point x="307" y="604"/>
      <point x="307" y="613" type="curve" smooth="yes"/>
      <point x="307" y="1202" type="line" smooth="yes"/>
      <point x="307" y="1223"/>
      <point x="295" y="1228"/>
      <point x="280" y="1213" type="curve" smooth="yes"/>
      <point x="85" y="1018" type="line" smooth="yes"/>
      <point x="79" y="1012"/>
      <point x="79" y="1002"/>
      <point x="85" y="996" type="curve" smooth="yes"/>
      <point x="91" y="990"/>
      <point x="101" y="990"/>
      <point x="107" y="996" type="curve" smooth="yes"/>
      <point x="302" y="1191" type="line"/>
      <point x="275" y="1202" type="line"/>
    </contour>
    <contour>
      <point x="486" y="593" type="line" smooth="yes"/>
      <point x="495" y="593"/>
      <point x="502" y="600"/>
      <point x="502" y="609" type="curve" smooth="yes"/>
      <point x="502" y="618"/>
      <point x="495" y="625"/>
      <point x="486" y="625" type="curve" smooth="yes"/>
      <point x="96" y="625" type="line" smooth="yes"/>
      <point x="87" y="625"/>
      <point x="80" y="618"/>
      <point x="80" y="609" type="curve" smooth="yes"/>
      <point x="80" y="600"/>
      <point x="87" y="593"/>
      <point x="96" y="593" type="curve" smooth="yes"/>
    </contour>
  </outline>
</glyph>
<glyph name="Oslash" format="1">
  <advance width="1345"/>
  <unicode hex="00D8"/>
  <outline>
    <contour>
      <point x="1170" y="1099" type="line" smooth="yes"/>
      <point x="1176" y="1105"/>
      <point x="1175" y="1116"/>
      <point x="1169" y="1122" type="curve" smooth="yes"/>
      <point x="1163" y="1128"/>
      <point x="1152" y="1127"/>
      <point x="1146" y="1121" type="curve" smooth="yes"/>
      <point x="170" y="97" type="line" smooth="yes"/>
      <point x="164" y="91"/>
      <point x="165" y="80"/>
      <point x="171" y="74" type="curve" smooth="yes"/>
      <point x="177" y="68"/>
      <point x="188" y="69"/>
      <point x="194" y="75" type="curve" smooth="yes"/>
    </contour>
    <component base="O"/>
  </outline>
</glyph>
<glyph name="Thorn" format="1">
  <advance width="616.0"/>
  <unicode hex="00DE"/>
  <outline>
    <contour>
      <point x="86" y="-160" type="line" smooth="yes"/>
      <point x="86" y="-165"/>
      <point x="91" y="-170"/>
      <point x="96" y="-170" type="curve" smooth="yes"/>
      <point x="101" y="-170"/>
      <point x="106" y="-165"/>
      <point x="106" y="-160" type="curve" smooth="yes"/>
      <point x="106" y="1200" type="line" smooth="yes"/>
      <point x="106" y="1205"/>
      <point x="101" y="1210"/>
      <point x="96" y="1210" type="curve" smooth="yes"/>
      <point x="91" y="1210"/>
      <point x="86" y="1205"/>
      <point x="86" y="1200" type="curve" smooth="yes"/>
    </contour>
    <contour>
      <point x="106" y="1102" type="line" smooth="yes"/>
      <point x="101" y="1102"/>
      <point x="96" y="1097"/>
      <point x="96" y="1092" type="curve" smooth="yes"/>
      <point x="96" y="1087"/>
      <point x="101" y="1082"/>
      <point x="106" y="1082" type="curve" smooth="yes"/>
      <point x="626" y="1082" type="line" smooth="yes"/>
      <point x="913" y="1082"/>
      <point x="1147" y="848"/>
      <point x="1147" y="561" type="curve" smooth="yes"/>
      <point x="1147" y="532" type="line" smooth="yes"/>
      <point x="1147" y="245"/>
      <point x="913" y="10"/>
      <point x="626" y="10" type="curve" smooth="yes"/>
      <point x="104" y="10" type="line" smooth="yes"/>
      <point x="99" y="10"/>
      <point x="94" y="5"/>
      <point x="94" y="0" type="curve" smooth="yes"/>
      <point x="94" y="-5"/>
      <point x="99" y="-10"/>
      <point x="104" y="-10" type="curve" smooth="yes"/>
      <point x="626" y="-10" type="line" smooth="yes"/>
      <point x="925" y="-10"/>
      <point x="1167" y="233"/>
      <point x="1167" y="532" type="curve" smooth="yes"/>
      <point x="1167" y="561" type="line" smooth="yes"/>
      <point x="1167" y="858"/>
      <point x="925" y="1102"/>
      <point x="626" y="1102" type="curve" smooth="yes"/>
    </contour>
  </outline>
</glyph>
<glyph name="ae" format="1">
  <advance width="620.0"/>
  <unicode hex="00E6"/>
  <outline>
    <contour>
      <point x="504" y="640" type="curve" smooth="yes"/>
      <point x="504" y="450" type="line"/>
      <point x="324" y="450" type="line"/>
      <point x="324" y="835" type="line"/>
      <point x="425" y="827"/>
      <point x="504" y="743"/>
    </contour>
    <contour>
      <point x="112" y="212" type="curve" smooth="yes"/>
      <point x="112" y="323" type="line" smooth="yes"/>
      <point x="112" y="324" type="line"/>
      <point x="112" y="324" type="line" smooth="yes"/>
      <point x="112" y="427"/>
      <point x="191" y="511"/>
      <point x="292" y="519" type="curve"/>
      <point x="292" y="17" type="line"/>
      <point x="191" y="25"/>
      <point x="112" y="109"/>
    </contour>
    <contour>
      <point x="308" y="-16" type="curve" smooth="yes"/>
      <point x="434" y="-16"/>
      <point x="536" y="86"/>
      <point x="536" y="212" type="curve" smooth="yes"/>
      <point x="536" y="221"/>
      <point x="529" y="228"/>
      <point x="520" y="228" type="curve" smooth="yes"/>
      <point x="511" y="228"/>
      <point x="504" y="221"/>
      <point x="504" y="212" type="curve" smooth="yes"/>
      <point x="504" y="109"/>
      <point x="425" y="25"/>
      <point x="324" y="17" type="curve"/>
      <point x="324" y="418" type="line"/>
      <point x="520" y="418" type="line"/>
      <point x="529" y="418"/>
      <point x="536" y="425"/>
      <point x="536" y="434" type="curve" smooth="yes"/>
      <point x="536" y="640" type="line" smooth="yes"/>
      <point x="536" y="766"/>
      <point x="434" y="868"/>
      <point x="308" y="868" type="curve" smooth="yes"/>
      <point x="182" y="868"/>
      <point x="80" y="766"/>
      <point x="80" y="640" type="curve" smooth="yes"/>
      <point x="80" y="631"/>
      <point x="87" y="624"/>
      <point x="96" y="624" type="curve" smooth="yes"/>
      <point x="105" y="624"/>
      <point x="112" y="631"/>
      <point x="112" y="640" type="curve" smooth="yes"/>
      <point x="112" y="743"/>
      <point x="191" y="827"/>
      <point x="292" y="835" type="curve"/>
      <point x="292" y="551" type="line"/>
      <point x="173" y="543"/>
      <point x="80" y="445"/>
      <point x="80" y="324" type="curve" smooth="yes"/>
      <point x="80" y="323" type="line"/>
      <point x="80" y="323" type="line" smooth="yes"/>
      <point x="80" y="212" type="line" smooth="yes"/>
      <point x="80" y="86"/>
      <point x="182" y="-16"/>
    </contour>
  </outline>
</glyph>
<glyph name="divide" format="1">
  <advance width="952"/>
  <unicode hex="00F7"/>
  <outline>
    <contour>
      <point x="476" y="242" type="curve" smooth="yes"/>
      <point x="488" y="242"/>
      <point x="500" y="254"/>
      <point x="500" y="266" type="curve" smooth="yes"/>
      <point x="500" y="278"/>
      <point x="488" y="290"/>
      <point x="476" y="290" type="curve" smooth="yes"/>
      <point x="464" y="290"/>
      <point x="452" y="278"/>
      <point x="452" y="266" type="curve" smooth="yes"/>
      <point x="452" y="254"/>
      <point x="464" y="242"/>
    </contour>
    <contour>
      <point x="476" y="562" type="curve" smooth="yes"/>
      <point x="488" y="562"/>
      <point x="500" y="574"/>
      <point x="500" y="586" type="curve" smooth="yes"/>
      <point x="500" y="598"/>
      <point x="488" y="610"/>
      <point x="476" y="610" type="curve" smooth="yes"/>
      <point x="464" y="610"/>
      <point x="452" y="598"/>
      <point x="452" y="586" type="curve" smooth="yes"/>
      <point x="452" y="574"/>
      <point x="464" y="562"/>
    </contour>
    <contour>
      <point x="726" y="410" type="line" smooth="yes"/>
      <point x="735" y="410"/>
      <point x="742" y="417"/>
      <point x="742" y="426" type="curve" smooth="yes"/>
      <point x="742" y="435"/>
      <point x="735" y="442"/>
      <point x="726" y="442" type="curve" smooth="yes"/>
      <point x="226" y="442" type="line" smooth="yes"/>
      <point x="217" y="442"/>
      <point x="210" y="435"/>
      <point x="210" y="426" type="curve" smooth="yes"/>
      <point x="210" y="417"/>
      <point x="217" y="410"/>
      <point x="226" y="410" type="curve" smooth="yes"/>
    </contour>
  </outline>
</glyph>
<glyph name="oslash" format="1">
  <advance width="1094"/>
  <unicode hex="00F8"/>
  <outline>
    <contour>
      <point x="929" y="907" type="line" smooth="yes"/>
      <point x="935" y="913"/>
      <point x="934" y="924"/>
      <point x="927" y="929" type="curve" smooth="yes"/>
      <point x="921" y="935"/>
      <point x="910" y="934"/>
      <point x="905" y="927" type="curve" smooth="yes"/>
      <point x="143" y="25" type="line" smooth="yes"/>
      <point x="137" y="19"/>
      <point x="138" y="8"/>
      <point x="145" y="3" type="curve" smooth="yes"/>
      <point x="151" y="-3"/>
      <point x="162" y="-2"/>
      <point x="167" y="5" type="curve" smooth="yes"/>
    </contour>
    <component base="o"/>
  </outline>
</glyph>
<glyph name="OE" format="1">
  <advance width="1686"/>
  <unicode hex="0152"/>
  <outline>
    <contour>
      <point x="1596" y="6" type="line" smooth="yes"/>
      <point x="1601" y="6"/>
      <point x="1606" y="11"/>
      <point x="1606" y="16" type="curve" smooth="yes"/>
      <point x="1606" y="21"/>
      <point x="1601" y="26"/>
      <point x="1596" y="26" type="curve" smooth="yes"/>
      <point x="1020" y="26" type="line"/>
      <point x="1030" y="16" type="line"/>
      <point x="1030" y="1184" type="line"/>
      <point x="1020" y="1174" type="line"/>
      <point x="1596" y="1174" type="line" smooth="yes"/>
      <point x="1601" y="1174"/>
      <point x="1606" y="1179"/>
      <point x="1606" y="1184" type="curve" smooth="yes"/>
      <point x="1606" y="1189"/>
      <point x="1601" y="1194"/>
      <point x="1596" y="1194" type="curve" smooth="yes"/>
      <point x="1020" y="1194" type="line" smooth="yes"/>
      <point x="1014" y="1194"/>
      <point x="1010" y="1190"/>
      <point x="1010" y="1184" type="curve" smooth="yes"/>
      <point x="1010" y="16" type="line" smooth="yes"/>
      <point x="1010" y="10"/>
      <point x="1014" y="6"/>
      <point x="1020" y="6" type="curve" smooth="yes"/>
    </contour>
    <contour>
      <point x="1022" y="557" type="line" smooth="yes"/>
      <point x="1017" y="557"/>
      <point x="1012" y="552"/>
      <point x="1012" y="547" type="curve" smooth="yes"/>
      <point x="1012" y="542"/>
      <point x="1017" y="537"/>
      <point x="1022" y="537" type="curve" smooth="yes"/>
      <point x="1303" y="537" type="line" smooth="yes"/>
      <point x="1308" y="537"/>
      <point x="1313" y="542"/>
      <point x="1313" y="547" type="curve" smooth="yes"/>
      <point x="1313" y="552"/>
      <point x="1308" y="557"/>
      <point x="1303" y="557" type="curve" smooth="yes"/>
    </contour>
    <contour>
      <point x="1006" y="1076" type="curve" smooth="yes"/>
      <point x="1010" y="1073"/>
      <point x="1017" y="1074"/>
      <point x="1020" y="1078" type="curve" smooth="yes"/>
      <point x="1023" y="1082"/>
      <point x="1022" y="1089"/>
      <point x="1018" y="1092" type="curve" smooth="yes"/>
      <point x="920" y="1166"/>
      <point x="798" y="1210"/>
      <point x="667" y="1210" type="curve" smooth="yes"/>
      <point x="343" y="1210"/>
      <point x="80" y="946"/>
      <point x="80" y="624" type="curve" smooth="yes"/>
      <point x="80" y="561" type="line" smooth="yes"/>
      <point x="80" y="237"/>
      <point x="343" y="-26"/>
      <point x="667" y="-26" type="curve" smooth="yes"/>
      <point x="799" y="-26"/>
      <point x="921" y="18"/>
      <point x="1020" y="93" type="curve" smooth="yes"/>
      <point x="1024" y="96"/>
      <point x="1025" y="103"/>
      <point x="1022" y="107" type="curve" smooth="yes"/>
      <point x="1019" y="111"/>
      <point x="1012" y="112"/>
      <point x="1008" y="109" type="curve" smooth="yes"/>
      <point x="913" y="36"/>
      <point x="795" y="-6"/>
      <point x="667" y="-6" type="curve" smooth="yes"/>
      <point x="355" y="-6"/>
      <point x="100" y="249"/>
      <point x="100" y="561" type="curve" smooth="yes"/>
      <point x="100" y="624" type="line" smooth="yes"/>
      <point x="100" y="936"/>
      <point x="355" y="1190"/>
      <point x="667" y="1190" type="curve" smooth="yes"/>
      <point x="794" y="1190"/>
      <point x="912" y="1148"/>
    </contour>
  </outline>
</glyph>
<glyph name="longs" format="1">
  <advance width="563"/>
  <unicode hex="017F"/>
  <outline>
    <contour>
      <point x="547" y="1216" type="curve" smooth="yes"/>
      <point x="290" y="1216"/>
      <point x="80" y="1006"/>
      <point x="80" y="749" type="curve" smooth="yes"/>
      <point x="80" y="16" type="line" smooth="yes"/>
      <point x="80" y="7"/>
      <point x="87" y="0"/>
      <point x="96" y="0" type="curve" smooth="yes"/>
      <point x="105" y="0"/>
      <point x="112" y="7"/>
      <point x="112" y="16" type="curve" smooth="yes"/>
      <point x="112" y="749" type="line" smooth="yes"/>
      <point x="112" y="988"/>
      <point x="308" y="1184"/>
      <point x="547" y="1184" type="curve" smooth="yes"/>
      <point x="556" y="1184"/>
      <point x="563" y="1191"/>
      <point x="563" y="1200" type="curve" smooth="yes"/>
      <point x="563" y="1209"/>
      <point x="556" y="1216"/>
    </contour>
  </outline>
</glyph>
<glyph name="circumflex" format="1">
  <advance width="612.0"/>
  <unicode hex="02C6"/>
  <outline>
    <contour>
      <point x="160" y="1248" type="line" smooth="yes"/>
      <point x="154" y="1242"/>
      <point x="154" y="1232"/>
      <point x="160" y="1226" type="curve" smooth="yes"/>
      <point x="166" y="1220"/>
      <point x="176" y="1220"/>
      <point x="182" y="1226" type="curve" smooth="yes"/>
      <point x="323" y="1369" type="line"/>
      <point x="301" y="1369" type="line"/>
      <point x="442" y="1226" type="line" smooth="yes"/>
      <point x="448" y="1220"/>
      <point x="458" y="1220"/>
      <point x="464" y="1226" type="curve" smooth="yes"/>
      <point x="470" y="1232"/>
      <point x="470" y="1242"/>
      <point x="464" y="1248" type="curve" smooth="yes"/>
      <point x="323" y="1391" type="line" smooth="yes"/>
      <point x="317" y="1398"/>
      <point x="307" y="1398"/>
      <point x="301" y="1391" type="curve" smooth="yes"/>
    </contour>
  </outline>
</glyph>
<glyph name="Omega" format="1">
  <advance width="1345"/>
  <unicode hex="03A9"/>
  <outline>
    <contour>
      <point x="1182" y="-76" type="line" smooth="yes"/>
      <point x="1191" y="-76"/>
      <point x="1198" y="-69"/>
      <point x="1198" y="-60" type="curve" smooth="yes"/>
      <point x="1198" y="-51"/>
      <point x="1191" y="-44"/>
      <point x="1182" y="-44" type="curve" smooth="yes"/>
      <point x="857" y="-44" type="line"/>
      <point x="873" y="-60" type="line"/>
      <point x="873" y="54" type="line"/>
      <point x="862" y="39" type="line"/>
      <point x="1095" y="118"/>
      <point x="1265" y="340"/>
      <point x="1265" y="601" type="curve" smooth="yes"/>
      <point x="1265" y="624" type="line" smooth="yes"/>
      <point x="1265" y="950"/>
      <point x="999" y="1216"/>
      <point x="673" y="1216" type="curve" smooth="yes"/>
      <point x="346" y="1216"/>
      <point x="80" y="950"/>
      <point x="80" y="624" type="curve" smooth="yes"/>
      <point x="80" y="601" type="line" smooth="yes"/>
      <point x="80" y="340"/>
      <point x="250" y="118"/>
      <point x="484" y="39" type="curve"/>
      <point x="473" y="54" type="line"/>
      <point x="473" y="-60" type="line"/>
      <point x="489" y="-44" type="line"/>
      <point x="164" y="-44" type="line" smooth="yes"/>
      <point x="155" y="-44"/>
      <point x="148" y="-51"/>
      <point x="148" y="-60" type="curve" smooth="yes"/>
      <point x="148" y="-69"/>
      <point x="155" y="-76"/>
      <point x="164" y="-76" type="curve" smooth="yes"/>
      <point x="489" y="-76" type="line" smooth="yes"/>
      <point x="498" y="-76"/>
      <point x="505" y="-69"/>
      <point x="505" y="-60" type="curve" smooth="yes"/>
      <point x="505" y="54" type="line" smooth="yes"/>
      <point x="505" y="60"/>
      <point x="500" y="67"/>
      <point x="494" y="69" type="curve" smooth="yes"/>
      <point x="272" y="144"/>
      <point x="112" y="354"/>
      <point x="112" y="601" type="curve" smooth="yes"/>
      <point x="112" y="624" type="line" smooth="yes"/>
      <point x="112" y="932"/>
      <point x="364" y="1184"/>
      <point x="673" y="1184" type="curve" smooth="yes"/>
      <point x="981" y="1184"/>
      <point x="1233" y="932"/>
      <point x="1233" y="624" type="curve" smooth="yes"/>
      <point x="1233" y="601" type="line" smooth="yes"/>
      <point x="1233" y="354"/>
      <point x="1073" y="144"/>
      <point x="852" y="69" type="curve" smooth="yes"/>
      <point x="846" y="67"/>
      <point x="841" y="60"/>
      <point x="841" y="54" type="curve" smooth="yes"/>
      <point x="841" y="-60" type="line" smooth="yes"/>
      <point x="841" y="-69"/>
      <point x="848" y="-76"/>
      <point x="857" y="-76" type="curve" smooth="yes"/>
    </contour>
  </outline>
</glyph>
<glyph name="pi" format="1">
  <advance width="952"/>
  <unicode hex="03C0"/>
  <outline>
    <contour>
      <point x="856" y="917" type="line" smooth="yes"/>
      <point x="865" y="917"/>
      <point x="872" y="924"/>
      <point x="872" y="933" type="curve" smooth="yes"/>
      <point x="872" y="942"/>
      <point x="865" y="949"/>
      <point x="856" y="949" type="curve" smooth="yes"/>
      <point x="96" y="949" type="line" smooth="yes"/>
      <point x="87" y="949"/>
      <point x="80" y="942"/>
      <point x="80" y="933" type="curve" smooth="yes"/>
      <point x="80" y="924"/>
      <point x="87" y="917"/>
      <point x="96" y="917" type="curve" smooth="yes"/>
    </contour>
    <contour>
      <point x="192" y="16" type="line" smooth="yes"/>
      <point x="192" y="7"/>
      <point x="199" y="0"/>
      <point x="208" y="0" type="curve" smooth="yes"/>
      <point x="217" y="0"/>
      <point x="224" y="7"/>
      <point x="224" y="16" type="curve" smooth="yes"/>
      <point x="224" y="927" type="line" smooth="yes"/>
      <point x="224" y="936"/>
      <point x="217" y="943"/>
      <point x="208" y="943" type="curve" smooth="yes"/>
      <point x="199" y="943"/>
      <point x="192" y="936"/>
      <point x="192" y="927" type="curve" smooth="yes"/>
    </contour>
    <contour>
      <point x="527" y="927" type="line" smooth="yes"/>
      <point x="527" y="936"/>
      <point x="520" y="943"/>
      <point x="511" y="943" type="curve" smooth="yes"/>
      <point x="502" y="943"/>
      <point x="495" y="936"/>
      <point x="495" y="927" type="curve" smooth="yes"/>
      <point x="495" y="345" type="line" smooth="yes"/>
      <point x="495" y="146"/>
      <point x="657" y="-16"/>
      <point x="856" y="-16" type="curve" smooth="yes"/>
      <point x="865" y="-16"/>
      <point x="872" y="-9"/>
      <point x="872" y="0" type="curve" smooth="yes"/>
      <point x="872" y="9"/>
      <point x="865" y="16"/>
      <point x="856" y="16" type="curve" smooth="yes"/>
      <point x="675" y="16"/>
      <point x="527" y="164"/>
      <point x="527" y="345" type="curve" smooth="yes"/>
    </contour>
  </outline>
</glyph>
<glyph name="quoteright" format="1">
  <advance width="184"/>
  <unicode hex="2019"/>
  <outline>
    <contour>
      <point x="89" y="1111" type="curve"/>
      <point x="124" y="1183" type="line" smooth="yes"/>
      <point x="129" y="1193"/>
      <point x="126" y="1208"/>
      <point x="112" y="1214" type="curve" smooth="yes"/>
      <point x="100" y="1220"/>
      <point x="82" y="1211"/>
      <point x="78" y="1199" type="curve" smooth="yes"/>
      <point x="59" y="1123" type="line" smooth="yes"/>
      <point x="57" y="1114"/>
      <point x="61" y="1106"/>
      <point x="68" y="1104" type="curve" smooth="yes"/>
      <point x="76" y="1100"/>
      <point x="85" y="1103"/>
    </contour>
  </outline>
</glyph>
<glyph name="daggerdbl" format="1">
  <advance width="612.0"/>
  <unicode hex="2021"/>
  <outline>
    <contour>
      <point x="330" y="16" type="line" smooth="yes"/>
      <point x="330" y="7"/>
      <point x="337" y="0"/>
      <point x="346" y="0" type="curve" smooth="yes"/>
      <point x="355" y="0"/>
      <point x="362" y="7"/>
      <point x="362" y="16" type="curve" smooth="yes"/>
      <point x="362" y="1184" type="line" smooth="yes"/>
      <point x="362" y="1193"/>
      <point x="355" y="1200"/>
      <point x="346" y="1200" type="curve" smooth="yes"/>
      <point x="337" y="1200"/>
      <point x="330" y="1193"/>
      <point x="330" y="1184" type="curve" smooth="yes"/>
    </contour>
    <contour>
      <point x="96" y="950" type="line" smooth="yes"/>
      <point x="87" y="950"/>
      <point x="80" y="943"/>
      <point x="80" y="934" type="curve" smooth="yes"/>
      <point x="80" y="925"/>
      <point x="87" y="918"/>
      <point x="96" y="918" type="curve" smooth="yes"/>
      <point x="596" y="918" type="line" smooth="yes"/>
      <point x="605" y="918"/>
      <point x="612" y="925"/>
      <point x="612" y="934" type="curve" smooth="yes"/>
      <point x="612" y="943"/>
      <point x="605" y="950"/>
      <point x="596" y="950" type="curve" smooth="yes"/>
    </contour>
    <contour>
      <point x="96" y="735" type="line" smooth="yes"/>
      <point x="87" y="735"/>
      <point x="80" y="728"/>
      <point x="80" y="719" type="curve" smooth="yes"/>
      <point x="80" y="710"/>
      <point x="87" y="703"/>
      <point x="96" y="703" type="curve" smooth="yes"/>
      <point x="596" y="703" type="line" smooth="yes"/>
      <point x="605" y="703"/>
      <point x="612" y="710"/>
      <point x="612" y="719" type="curve" smooth="yes"/>
      <point x="612" y="728"/>
      <point x="605" y="735"/>
      <point x="596" y="735" type="curve" smooth="yes"/>
    </contour>
  </outline>
</glyph>
<glyph name="bullet" format="1">
  <advance width="374"/>
  <unicode hex="2022"/>
  <outline>
    <contour>
      <point x="187" y="344" type="curve" smooth="yes"/>
      <point x="245" y="344"/>
      <point x="294" y="391"/>
      <point x="294" y="451" type="curve" smooth="yes"/>
      <point x="294" y="509"/>
      <point x="245" y="558"/>
      <point x="187" y="558" type="curve" smooth="yes"/>
      <point x="127" y="558"/>
      <point x="80" y="509"/>
      <point x="80" y="451" type="curve" smooth="yes"/>
      <point x="80" y="391"/>
      <point x="127" y="344"/>
    </contour>
  </outline>
</glyph>
<glyph name="zero.sup" format="1">
  <advance width="582"/>
  <unicode hex="2070"/>
  <outline>
    <contour>
      <point x="502" y="1021" type="line" smooth="yes"/>
      <point x="502" y="1137"/>
      <point x="407" y="1232"/>
      <point x="291" y="1232" type="curve" smooth="yes"/>
      <point x="175" y="1232"/>
      <point x="80" y="1137"/>
      <point x="80" y="1021" type="curve" smooth="yes"/>
      <point x="80" y="794" type="line" smooth="yes"/>
      <point x="80" y="678"/>
      <point x="175" y="584"/>
      <point x="291" y="584" type="curve" smooth="yes"/>
      <point x="407" y="584"/>
      <point x="502" y="678"/>
      <point x="502" y="794" type="curve" smooth="yes"/>
    </contour>
    <contour>
      <point x="470" y="1021" type="curve" smooth="yes"/>
      <point x="470" y="794" type="line" smooth="yes"/>
      <point x="470" y="696"/>
      <point x="389" y="616"/>
      <point x="291" y="616" type="curve" smooth="yes"/>
      <point x="193" y="616"/>
      <point x="112" y="696"/>
      <point x="112" y="794" type="curve" smooth="yes"/>
      <point x="112" y="1021" type="line" smooth="yes"/>
      <point x="112" y="1119"/>
      <point x="193" y="1200"/>
      <point x="291" y="1200" type="curve" smooth="yes"/>
      <point x="389" y="1200"/>
      <point x="470" y="1119"/>
    </contour>
    <contour>
      <point x="91" y="821" type="line" smooth="yes"/>
      <point x="83" y="817"/>
      <point x="80" y="807"/>
      <point x="84" y="800" type="curve" smooth="yes"/>
      <point x="88" y="792"/>
      <point x="98" y="789"/>
      <point x="105" y="793" type="curve" smooth="yes"/>
      <point x="492" y="995" type="line" smooth="yes"/>
      <point x="500" y="999"/>
      <point x="503" y="1009"/>
      <point x="499" y="1016" type="curve" smooth="yes"/>
      <point x="495" y="1024"/>
      <point x="485" y="1027"/>
      <point x="478" y="1023" type="curve" smooth="yes"/>
    </contour>
  </outline>
</glyph>
<glyph name="five.sup" format="1">
  <advance width="577"/>
  <unicode hex="2075"/>
  <outline>
    <contour>
      <point x="112" y="793" type="curve" smooth="yes"/>
      <point x="112" y="802"/>
      <point x="105" y="809"/>
      <point x="96" y="809" type="curve" smooth="yes"/>
      <point x="87" y="809"/>
      <point x="80" y="802"/>
      <point x="80" y="793" type="curve" smooth="yes"/>
      <point x="80" y="678"/>
      <point x="174" y="584"/>
      <point x="289" y="584" type="curve" smooth="yes"/>
      <point x="404" y="584"/>
      <point x="497" y="678"/>
      <point x="497" y="793" type="curve" smooth="yes"/>
      <point x="497" y="806" type="line" smooth="yes"/>
      <point x="497" y="921"/>
      <point x="404" y="1015"/>
      <point x="289" y="1015" type="curve" smooth="yes"/>
      <point x="96" y="1015" type="line"/>
      <point x="112" y="999" type="line"/>
      <point x="112" y="1200" type="line"/>
      <point x="96" y="1184" type="line"/>
      <point x="481" y="1184" type="line" smooth="yes"/>
      <point x="490" y="1184"/>
      <point x="497" y="1191"/>
      <point x="497" y="1200" type="curve" smooth="yes"/>
      <point x="497" y="1209"/>
      <point x="490" y="1216"/>
      <point x="481" y="1216" type="curve" smooth="yes"/>
      <point x="96" y="1216" type="line" smooth="yes"/>
      <point x="87" y="1216"/>
      <point x="80" y="1209"/>
      <point x="80" y="1200" type="curve" smooth="yes"/>
      <point x="80" y="999" type="line" smooth="yes"/>
      <point x="80" y="990"/>
      <point x="87" y="983"/>
      <point x="96" y="983" type="curve" smooth="yes"/>
      <point x="289" y="983" type="line" smooth="yes"/>
      <point x="386" y="983"/>
      <point x="465" y="903"/>
      <point x="465" y="806" type="curve" smooth="yes"/>
      <point x="465" y="793" type="line" smooth="yes"/>
      <point x="465" y="696"/>
      <point x="386" y="616"/>
      <point x="289" y="616" type="curve" smooth="yes"/>
      <point x="192" y="616"/>
      <point x="112" y="696"/>
    </contour>
  </outline>
</glyph>
<glyph name="six.sup" format="1">
  <advance width="582"/>
  <unicode hex="2076"/>
  <outline>
    <contour>
      <point x="470" y="1021" type="curve" smooth="yes"/>
      <point x="470" y="1012"/>
      <point x="477" y="1005"/>
      <point x="486" y="1005" type="curve" smooth="yes"/>
      <point x="495" y="1005"/>
      <point x="502" y="1012"/>
      <point x="502" y="1021" type="curve" smooth="yes"/>
      <point x="502" y="1137"/>
      <point x="407" y="1232"/>
      <point x="291" y="1232" type="curve" smooth="yes"/>
      <point x="175" y="1232"/>
      <point x="80" y="1137"/>
      <point x="80" y="1021" type="curve" smooth="yes"/>
      <point x="80" y="794" type="line" smooth="yes"/>
      <point x="80" y="678"/>
      <point x="175" y="584"/>
      <point x="291" y="584" type="curve" smooth="yes"/>
      <point x="407" y="584"/>
      <point x="502" y="678"/>
      <point x="502" y="794" type="curve" smooth="yes"/>
      <point x="502" y="831" type="line" smooth="yes"/>
      <point x="502" y="947"/>
      <point x="407" y="1042"/>
      <point x="291" y="1042" type="curve" smooth="yes"/>
      <point x="183" y="1042"/>
      <point x="93" y="960"/>
      <point x="81" y="854" type="curve" smooth="yes"/>
      <point x="80" y="845"/>
      <point x="87" y="837"/>
      <point x="95" y="836" type="curve" smooth="yes"/>
      <point x="104" y="835"/>
      <point x="112" y="842"/>
      <point x="113" y="850" type="curve" smooth="yes"/>
      <point x="123" y="940"/>
      <point x="199" y="1010"/>
      <point x="291" y="1010" type="curve" smooth="yes"/>
      <point x="389" y="1010"/>
      <point x="470" y="929"/>
      <point x="470" y="831" type="curve" smooth="yes"/>
      <point x="470" y="794" type="line" smooth="yes"/>
      <point x="470" y="696"/>
      <point x="389" y="616"/>
      <point x="291" y="616" type="curve" smooth="yes"/>
      <point x="193" y="616"/>
      <point x="112" y="696"/>
      <point x="112" y="794" type="curve" smooth="yes"/>
      <point x="112" y="1021" type="line" smooth="yes"/>
      <point x="112" y="1119"/>
      <point x="193" y="1200"/>
      <point x="291" y="1200" type="curve" smooth="yes"/>
      <point x="389" y="1200"/>
      <point x="470" y="1119"/>
    </contour>
  </outline>
</glyph>
<glyph name="nine.sup" format="1">
  <advance width="582"/>
  <unicode hex="2079"/>
  <outline>
    <contour>
      <point x="112" y="779" type="curve" smooth="yes"/>
      <point x="112" y="788"/>
      <point x="105" y="795"/>
      <point x="96" y="795" type="curve" smooth="yes"/>
      <point x="87" y="795"/>
      <point x="80" y="788"/>
      <point x="80" y="779" type="curve" smooth="yes"/>
      <point x="80" y="663"/>
      <point x="175" y="568"/>
      <point x="291" y="568" type="curve" smooth="yes"/>
      <point x="407" y="568"/>
      <point x="502" y="663"/>
      <point x="502" y="779" type="curve" smooth="yes"/>
      <point x="502" y="1006" type="line" smooth="yes"/>
      <point x="502" y="1122"/>
      <point x="407" y="1216"/>
      <point x="291" y="1216" type="curve" smooth="yes"/>
      <point x="175" y="1216"/>
      <point x="80" y="1122"/>
      <point x="80" y="1006" type="curve" smooth="yes"/>
      <point x="80" y="969" type="line" smooth="yes"/>
      <point x="80" y="853"/>
      <point x="175" y="758"/>
      <point x="291" y="758" type="curve" smooth="yes"/>
      <point x="399" y="758"/>
      <point x="489" y="840"/>
      <point x="501" y="946" type="curve" smooth="yes"/>
      <point x="502" y="955"/>
      <point x="495" y="963"/>
      <point x="487" y="964" type="curve" smooth="yes"/>
      <point x="478" y="965"/>
      <point x="470" y="958"/>
      <point x="469" y="950" type="curve" smooth="yes"/>
      <point x="459" y="860"/>
      <point x="383" y="790"/>
      <point x="291" y="790" type="curve" smooth="yes"/>
      <point x="193" y="790"/>
      <point x="112" y="871"/>
      <point x="112" y="969" type="curve" smooth="yes"/>
      <point x="112" y="1006" type="line" smooth="yes"/>
      <point x="112" y="1104"/>
      <point x="193" y="1184"/>
      <point x="291" y="1184" type="curve" smooth="yes"/>
      <point x="389" y="1184"/>
      <point x="470" y="1104"/>
      <point x="470" y="1006" type="curve" smooth="yes"/>
      <point x="470" y="779" type="line" smooth="yes"/>
      <point x="470" y="681"/>
      <point x="389" y="600"/>
      <point x="291" y="600" type="curve" smooth="yes"/>
      <point x="193" y="600"/>
      <point x="112" y="681"/>
    </contour>
  </outline>
</glyph>
<glyph name="product" format="1">
  <advance width="826"/>
  <unicode hex="220F"/>
  <outline>
    <contour>
      <point x="730" y="-16" type="curve"/>
      <point x="738" y="-16"/>
      <point x="746" y="-8"/>
      <point x="746" y="0" type="curve" smooth="yes"/>
      <point x="746" y="8"/>
      <point x="738" y="16"/>
      <point x="730" y="16" type="curve"/>
      <point x="670" y="16"/>
      <point x="622" y="64"/>
      <point x="622" y="124" type="curve"/>
      <point x="622" y="1168" type="line"/>
      <point x="730" y="1168" type="line" smooth="yes"/>
      <point x="738" y="1168"/>
      <point x="746" y="1176"/>
      <point x="746" y="1184" type="curve" smooth="yes"/>
      <point x="746" y="1192"/>
      <point x="738" y="1200"/>
      <point x="730" y="1200" type="curve"/>
      <point x="96" y="1200" type="line" smooth="yes"/>
      <point x="88" y="1200"/>
      <point x="80" y="1192"/>
      <point x="80" y="1184" type="curve" smooth="yes"/>
      <point x="80" y="1176"/>
      <point x="88" y="1168"/>
      <point x="96" y="1168" type="curve" smooth="yes"/>
      <point x="192" y="1168" type="line"/>
      <point x="192" y="16" type="line" smooth="yes"/>
      <point x="192" y="8"/>
      <point x="200" y="0"/>
      <point x="208" y="0" type="curve" smooth="yes"/>
      <point x="216" y="0"/>
      <point x="224" y="8"/>
      <point x="224" y="16" type="curve" smooth="yes"/>
      <point x="224" y="1168" type="line"/>
      <point x="590" y="1168" type="line"/>
      <point x="590" y="124" type="line"/>
      <point x="590" y="48"/>
      <point x="654" y="-16"/>
    </contour>
  </outline>
</glyph>
<glyph name="radical" format="1">
  <advance width="1491"/>
  <unicode hex="221A"/>
  <outline>
    <contour>
      <point x="110" y="940" type="line" smooth="yes"/>
      <point x="107" y="948"/>
      <point x="97" y="951"/>
      <point x="89" y="947" type="curve" smooth="yes"/>
      <point x="81" y="944"/>
      <point x="78" y="934"/>
      <point x="82" y="926" type="curve" smooth="yes"/>
      <point x="538" y="-25" type="line" smooth="yes"/>
      <point x="546" y="-42"/>
      <point x="558" y="-42"/>
      <point x="566" y="-25" type="curve" smooth="yes"/>
      <point x="1142" y="1177" type="line"/>
      <point x="1128" y="1168" type="line"/>
      <point x="1475" y="1168" type="line" smooth="yes"/>
      <point x="1484" y="1168"/>
      <point x="1491" y="1175"/>
      <point x="1491" y="1184" type="curve" smooth="yes"/>
      <point x="1491" y="1193"/>
      <point x="1484" y="1200"/>
      <point x="1475" y="1200" type="curve" smooth="yes"/>
      <point x="1128" y="1200" type="line" smooth="yes"/>
      <point x="1122" y="1200"/>
      <point x="1116" y="1196"/>
      <point x="1114" y="1191" type="curve" smooth="yes"/>
      <point x="538" y="-11" type="line"/>
      <point x="566" y="-11" type="line"/>
    </contour>
  </outline>
</glyph>
<glyph name="infinity" format="1">
  <advance width="2044.0"/>
  <unicode hex="221E"/>
  <outline>
    <contour>
      <point x="1136" y="797" type="curve" smooth="yes"/>
      <point x="1130" y="791"/>
      <point x="1130" y="781"/>
      <point x="1136" y="775" type="curve" smooth="yes"/>
      <point x="1142" y="769"/>
      <point x="1152" y="769"/>
      <point x="1158" y="775" type="curve" smooth="yes"/>
      <point x="1236" y="853"/>
      <point x="1345" y="902"/>
      <point x="1465" y="902" type="curve" smooth="yes"/>
      <point x="1496" y="902" type="line" smooth="yes"/>
      <point x="1735" y="902"/>
      <point x="1931" y="706"/>
      <point x="1931" y="467" type="curve" smooth="yes"/>
      <point x="1931" y="228"/>
      <point x="1735" y="32"/>
      <point x="1496" y="32" type="curve" smooth="yes"/>
      <point x="1465" y="32" type="line" smooth="yes"/>
      <point x="1225" y="32"/>
      <point x="1078" y="153"/>
      <point x="1030" y="469" type="curve" smooth="yes"/>
      <point x="978" y="809"/>
      <point x="819" y="934"/>
      <point x="563" y="934" type="curve" smooth="yes"/>
      <point x="532" y="934" type="line" smooth="yes"/>
      <point x="275" y="934"/>
      <point x="65" y="724"/>
      <point x="65" y="467" type="curve" smooth="yes"/>
      <point x="65" y="210"/>
      <point x="275" y="0"/>
      <point x="532" y="0" type="curve" smooth="yes"/>
      <point x="563" y="0" type="line" smooth="yes"/>
      <point x="691" y="0"/>
      <point x="808" y="53"/>
      <point x="893" y="138" type="curve" smooth="yes"/>
      <point x="899" y="144"/>
      <point x="899" y="154"/>
      <point x="893" y="160" type="curve" smooth="yes"/>
      <point x="887" y="166"/>
      <point x="877" y="166"/>
      <point x="871" y="160" type="curve" smooth="yes"/>
      <point x="792" y="81"/>
      <point x="683" y="32"/>
      <point x="563" y="32" type="curve" smooth="yes"/>
      <point x="532" y="32" type="line" smooth="yes"/>
      <point x="293" y="32"/>
      <point x="97" y="228"/>
      <point x="97" y="467" type="curve" smooth="yes"/>
      <point x="97" y="706"/>
      <point x="293" y="902"/>
      <point x="532" y="902" type="curve" smooth="yes"/>
      <point x="563" y="902" type="line" smooth="yes"/>
      <point x="803" y="902"/>
      <point x="950" y="781"/>
      <point x="998" y="465" type="curve" smooth="yes"/>
      <point x="1050" y="125"/>
      <point x="1209" y="0"/>
      <point x="1465" y="0" type="curve" smooth="yes"/>
      <point x="1496" y="0" type="line" smooth="yes"/>
      <point x="1753" y="0"/>
      <point x="1963" y="210"/>
      <point x="1963" y="467" type="curve" smooth="yes"/>
      <point x="1963" y="724"/>
      <point x="1753" y="934"/>
      <point x="1496" y="934" type="curve" smooth="yes"/>
      <point x="1465" y="934" type="line" smooth="yes"/>
      <point x="1337" y="934"/>
      <point x="1220" y="881"/>
    </contour>
  </outline>
</glyph>
<glyph name="approxequal" format="1">
  <advance width="615"/>
  <unicode hex="2248"/>
  <outline>
    <contour>
      <point x="456" y="483"/>
      <point x="498" y="499"/>
      <point x="530" y="531" type="curve" smooth="yes"/>
      <point x="533" y="534"/>
      <point x="535" y="538"/>
      <point x="535" y="542" type="curve" smooth="yes"/>
      <point x="535" y="546"/>
      <point x="533" y="550"/>
      <point x="530" y="553" type="curve" smooth="yes"/>
      <point x="527" y="556"/>
      <point x="523" y="558"/>
      <point x="519" y="558" type="curve" smooth="yes"/>
      <point x="515" y="558"/>
      <point x="511" y="556"/>
      <point x="508" y="553" type="curve" smooth="yes"/>
      <point x="482" y="527"/>
      <point x="448" y="514"/>
      <point x="414" y="514" type="curve" smooth="yes"/>
      <point x="380" y="514"/>
      <point x="345" y="528"/>
      <point x="318" y="554" type="curve" smooth="yes"/>
      <point x="286" y="587"/>
      <point x="244" y="603"/>
      <point x="201" y="603" type="curve" smooth="yes"/>
      <point x="159" y="603"/>
      <point x="116" y="587"/>
      <point x="84" y="554" type="curve" smooth="yes"/>
      <point x="81" y="551"/>
      <point x="80" y="547"/>
      <point x="80" y="543" type="curve" smooth="yes"/>
      <point x="80" y="539"/>
      <point x="81" y="535"/>
      <point x="84" y="532" type="curve" smooth="yes"/>
      <point x="87" y="529"/>
      <point x="91" y="528"/>
      <point x="95" y="528" type="curve" smooth="yes"/>
      <point x="99" y="528"/>
      <point x="103" y="529"/>
      <point x="106" y="532" type="curve" smooth="yes"/>
      <point x="132" y="558"/>
      <point x="167" y="570"/>
      <point x="201" y="570" type="curve" smooth="yes"/>
      <point x="236" y="570"/>
      <point x="270" y="558"/>
      <point x="296" y="532" type="curve" smooth="yes"/>
      <point x="329" y="499"/>
      <point x="371" y="483"/>
      <point x="413" y="483" type="curve" smooth="yes"/>
    </contour>
    <contour>
      <point x="456" y="243"/>
      <point x="498" y="259"/>
      <point x="530" y="291" type="curve" smooth="yes"/>
      <point x="533" y="294"/>
      <point x="535" y="298"/>
      <point x="535" y="302" type="curve" smooth="yes"/>
      <point x="535" y="306"/>
      <point x="533" y="310"/>
      <point x="530" y="313" type="curve" smooth="yes"/>
      <point x="527" y="316"/>
      <point x="523" y="318"/>
      <point x="519" y="318" type="curve" smooth="yes"/>
      <point x="515" y="318"/>
      <point x="511" y="316"/>
      <point x="508" y="313" type="curve" smooth="yes"/>
      <point x="482" y="287"/>
      <point x="448" y="274"/>
      <point x="414" y="274" type="curve" smooth="yes"/>
      <point x="380" y="274"/>
      <point x="345" y="288"/>
      <point x="318" y="314" type="curve" smooth="yes"/>
      <point x="286" y="347"/>
      <point x="244" y="363"/>
      <point x="201" y="363" type="curve" smooth="yes"/>
      <point x="159" y="363"/>
      <point x="116" y="347"/>
      <point x="84" y="314" type="curve" smooth="yes"/>
      <point x="81" y="311"/>
      <point x="80" y="307"/>
      <point x="80" y="303" type="curve" smooth="yes"/>
      <point x="80" y="299"/>
      <point x="81" y="295"/>
      <point x="84" y="292" type="curve" smooth="yes"/>
      <point x="87" y="289"/>
      <point x="91" y="288"/>
      <point x="95" y="288" type="curve" smooth="yes"/>
      <point x="99" y="288"/>
      <point x="103" y="289"/>
      <point x="106" y="292" type="curve" smooth="yes"/>
      <point x="132" y="318"/>
      <point x="167" y="330"/>
      <point x="201" y="330" type="curve" smooth="yes"/>
      <point x="236" y="330"/>
      <point x="270" y="318"/>
      <point x="296" y="292" type="curve" smooth="yes"/>
      <point x="329" y="259"/>
      <point x="371" y="243"/>
      <point x="413" y="243" type="curve" smooth="yes"/>
    </contour>
  </outline>
</glyph>
<glyph name="lessequal" format="1">
  <advance width="952"/>
  <unicode hex="2264"/>
  <outline>
    <contour>
      <point x="717" y="71" type="line" smooth="yes"/>
      <point x="724" y="66"/>
      <point x="734" y="68"/>
      <point x="739" y="75" type="curve" smooth="yes"/>
      <point x="744" y="82"/>
      <point x="742" y="92"/>
      <point x="735" y="97" type="curve" smooth="yes"/>
      <point x="238" y="439" type="line"/>
      <point x="238" y="413" type="line"/>
      <point x="735" y="753" type="line" smooth="yes"/>
      <point x="742" y="758"/>
      <point x="744" y="768"/>
      <point x="739" y="775" type="curve" smooth="yes"/>
      <point x="734" y="782"/>
      <point x="724" y="784"/>
      <point x="717" y="779" type="curve" smooth="yes"/>
      <point x="220" y="439" type="line" smooth="yes"/>
      <point x="209" y="432"/>
      <point x="209" y="420"/>
      <point x="220" y="413" type="curve" smooth="yes"/>
    </contour>
    <contour>
      <point x="726" y="-16" type="line" smooth="yes"/>
      <point x="735" y="-16"/>
      <point x="742" y="-9"/>
      <point x="742" y="0" type="curve" smooth="yes"/>
      <point x="742" y="9"/>
      <point x="735" y="16"/>
      <point x="726" y="16" type="curve" smooth="yes"/>
      <point x="226" y="16" type="line" smooth="yes"/>
      <point x="217" y="16"/>
      <point x="210" y="9"/>
      <point x="210" y="0" type="curve" smooth="yes"/>
      <point x="210" y="-9"/>
      <point x="217" y="-16"/>
      <point x="226" y="-16" type="curve" smooth="yes"/>
    </contour>
  </outline>
</glyph>
<glyph name="three.oldstyle" format="1">
  <advance width="952"/>
  <unicode hex="F733"/>
  <outline>
    <contour>
      <point x="590" y="373" type="curve" smooth="yes"/>
      <point x="582" y="371"/>
      <point x="576" y="363"/>
      <point x="577" y="354" type="curve" smooth="yes"/>
      <point x="579" y="346"/>
      <point x="587" y="340"/>
      <point x="596" y="341" type="curve" smooth="yes"/>
      <point x="740" y="364"/>
      <point x="852" y="491"/>
      <point x="852" y="642" type="curve" smooth="yes"/>
      <point x="852" y="644" type="line" smooth="yes"/>
      <point x="852" y="812"/>
      <point x="715" y="949"/>
      <point x="547" y="949" type="curve" smooth="yes"/>
      <point x="547" y="949"/>
      <point x="405" y="949"/>
      <point x="405" y="949" type="curve" smooth="yes"/>
      <point x="237" y="949"/>
      <point x="100" y="812"/>
      <point x="100" y="644" type="curve" smooth="yes"/>
      <point x="100" y="635"/>
      <point x="107" y="628"/>
      <point x="116" y="628" type="curve" smooth="yes"/>
      <point x="125" y="628"/>
      <point x="132" y="635"/>
      <point x="132" y="644" type="curve" smooth="yes"/>
      <point x="132" y="794"/>
      <point x="255" y="917"/>
      <point x="405" y="917" type="curve" smooth="yes"/>
      <point x="405" y="917"/>
      <point x="547" y="917"/>
      <point x="547" y="917" type="curve" smooth="yes"/>
      <point x="697" y="917"/>
      <point x="820" y="794"/>
      <point x="820" y="644" type="curve" smooth="yes"/>
      <point x="820" y="642" type="line" smooth="yes"/>
      <point x="820" y="507"/>
      <point x="720" y="394"/>
    </contour>
    <contour>
      <point x="112" y="42" type="curve" smooth="yes"/>
      <point x="112" y="51"/>
      <point x="105" y="58"/>
      <point x="96" y="58" type="curve" smooth="yes"/>
      <point x="87" y="58"/>
      <point x="80" y="51"/>
      <point x="80" y="42" type="curve" smooth="yes"/>
      <point x="80" y="-137"/>
      <point x="226" y="-283"/>
      <point x="405" y="-283" type="curve" smooth="yes"/>
      <point x="547" y="-283" type="line" smooth="yes"/>
      <point x="726" y="-283"/>
      <point x="872" y="-137"/>
      <point x="872" y="42" type="curve" smooth="yes"/>
      <point x="872" y="44" type="line" smooth="yes"/>
      <point x="872" y="210"/>
      <point x="746" y="348"/>
      <point x="585" y="367" type="curve" smooth="yes"/>
      <point x="576" y="368"/>
      <point x="568" y="361"/>
      <point x="567" y="353" type="curve" smooth="yes"/>
      <point x="566" y="344"/>
      <point x="573" y="336"/>
      <point x="581" y="335" type="curve" smooth="yes"/>
      <point x="726" y="318"/>
      <point x="840" y="194"/>
      <point x="840" y="44" type="curve" smooth="yes"/>
      <point x="840" y="42" type="line" smooth="yes"/>
      <point x="840" y="-119"/>
      <point x="708" y="-251"/>
      <point x="547" y="-251" type="curve" smooth="yes"/>
      <point x="405" y="-251" type="line" smooth="yes"/>
      <point x="244" y="-251"/>
      <point x="112" y="-119"/>
    </contour>
  </outline>
</glyph>
<glyph name="four.oldstyle" format="1">
  <advance width="616.0"/>
  <unicode hex="F734"/>
  <outline>
    <contour>
      <point x="520" y="852" type="curve"/>
      <point x="308" y="852" type="line" smooth="yes"/>
      <point x="300" y="852"/>
      <point x="294" y="846"/>
      <point x="292" y="840" type="curve" smooth="yes"/>
      <point x="80" y="20" type="line"/>
      <point x="80" y="10"/>
      <point x="84" y="0"/>
      <point x="96" y="0" type="curve" smooth="yes"/>
      <point x="504" y="0" type="line"/>
      <point x="504" y="-252" type="line" smooth="yes"/>
      <point x="504" y="-260"/>
      <point x="512" y="-268"/>
      <point x="520" y="-268" type="curve" smooth="yes"/>
      <point x="528" y="-268"/>
      <point x="536" y="-260"/>
      <point x="536" y="-252" type="curve" smooth="yes"/>
      <point x="536" y="836" type="line" smooth="yes"/>
      <point x="536" y="844"/>
      <point x="528" y="852"/>
    </contour>
    <contour>
      <point x="504" y="32" type="line"/>
      <point x="116" y="32" type="line"/>
      <point x="320" y="820" type="line"/>
      <point x="504" y="820" type="line"/>
    </contour>
  </outline>
</glyph>
<glyph name="seven.oldstyle" format="1">
  <advance width="616.0"/>
  <unicode hex="F737"/>
  <outline>
    <contour>
      <point x="308" y="-348" type="curve" smooth="yes"/>
      <point x="316" y="-348"/>
      <point x="322" y="-342"/>
      <point x="324" y="-334" type="curve" smooth="yes"/>
      <point x="536" y="834" type="line"/>
      <point x="536" y="842"/>
      <point x="530" y="852"/>
      <point x="520" y="852" type="curve" smooth="yes"/>
      <point x="96" y="852" type="line" smooth="yes"/>
      <point x="88" y="852"/>
      <point x="80" y="844"/>
      <point x="80" y="836" type="curve" smooth="yes"/>
      <point x="80" y="828"/>
      <point x="88" y="820"/>
      <point x="96" y="820" type="curve" smooth="yes"/>
      <point x="500" y="820" type="line"/>
      <point x="292" y="-330" type="line"/>
      <point x="292" y="-332"/>
      <point x="292" y="-332"/>
      <point x="292" y="-334" type="curve" smooth="yes"/>
      <point x="292" y="-340"/>
      <point x="298" y="-348"/>
    </contour>
  </outline>
</glyph>
